<svg xmlns="http://www.w3.org/2000/svg" width="2844.986" height="1681.969" viewBox="0 0 2844.986 1681.969">
  <g id="Group_2" data-name="Group 2" transform="translate(-1801.017 -217.871)">
    <path id="Path_113" data-name="Path 113" d="M2812,1797.7l-479.2,3.3-611.1-2.3-1366.3-5.1s-196-163.3-191.3-447.9c3.1-181.8,43.6-565.6,468.1-655.4,398.2-84.1,292.3-619.4,879.4-566.8,231.7,20.7,334.5,226.7,513.5,171.9,756.6-232,922.7,250.3,979.7,718.5C3025.8,1186.6,2969.1,1724.1,2812,1797.7Z" transform="translate(1637 98)" fill="#ebf3fa"/>
    <rect id="Rectangle_9" data-name="Rectangle 9" width="178.2" height="172.85" rx="12.7" transform="translate(3134.4 416.8)" fill="#c0d8fb"/>
    <rect id="Rectangle_10" data-name="Rectangle 10" width="162.7" height="157.87" rx="11.6" transform="translate(3142.1 424.3)" fill="#dfebfd"/>
    <path id="Path_114" data-name="Path 114" d="M1582.8,342.1a3.7,3.7,0,1,1,3.7,3.6,3.7,3.7,0,0,1-3.7-3.6Z" transform="translate(1637 98)" fill="#b7d3f3"/>
    <path id="Path_115" data-name="Path 115" d="M1612.6,347.3a3.672,3.672,0,1,1,1.4,5,3.6,3.6,0,0,1-1.4-5Z" transform="translate(1637 98)" fill="#b7d3f3"/>
    <path id="Path_116" data-name="Path 116" d="M1638.1,367.5a3.7,3.7,0,0,1,4,6.2,3.6,3.6,0,0,1-5.1-1.1,3.7,3.7,0,0,1,1.1-5.1Z" transform="translate(1637 98)" fill="#b7d3f3"/>
    <path id="Path_117" data-name="Path 117" d="M1650.7,398.9a3.7,3.7,0,1,1-3.6,3.7,3.7,3.7,0,0,1,3.6-3.7Z" transform="translate(1637 98)" fill="#b7d3f3"/>
    <path id="Path_118" data-name="Path 118" d="M1644.3,435.3a3.965,3.965,0,1,1-5.2,0,3.7,3.7,0,0,1,5.2,0Z" transform="translate(1637 98)" fill="#b7d3f3"/>
    <circle id="Ellipse_4" data-name="Ellipse 4" cx="3.7" cy="3.7" r="3.7" transform="translate(3251.8 555.5)" fill="#b7d3f3"/>
    <path id="Path_119" data-name="Path 119" d="M1582.8,470.5a3.7,3.7,0,1,1,3.7,3.7,3.7,3.7,0,0,1-3.7-3.7Z" transform="translate(1637 98)" fill="#b7d3f3"/>
    <path id="Path_120" data-name="Path 120" d="M1560.3,347.3a3.672,3.672,0,1,0-1.4,5,3.6,3.6,0,0,0,1.4-5Z" transform="translate(1637 98)" fill="#b7d3f3"/>
    <path id="Path_121" data-name="Path 121" d="M1534.8,367.5a3.7,3.7,0,0,0-4,6.2,3.6,3.6,0,0,0,5.1-1.1,3.7,3.7,0,0,0-1.1-5.1Z" transform="translate(1637 98)" fill="#b7d3f3"/>
    <path id="Path_122" data-name="Path 122" d="M1522.2,398.9a3.7,3.7,0,1,0,3.6,3.7,3.7,3.7,0,0,0-3.6-3.7Z" transform="translate(1637 98)" fill="#b7d3f3"/>
    <path id="Path_123" data-name="Path 123" d="M1528.6,435.3a3.488,3.488,0,1,0,5.2,0,3.7,3.7,0,0,0-5.2,0Z" transform="translate(1637 98)" fill="#b7d3f3"/>
    <path id="Path_124" data-name="Path 124" d="M1551.8,458.6a3.6,3.6,0,0,0,0,5.2,3.7,3.7,0,1,0,5.2-5.2,3.6,3.6,0,0,0-5.2,0Z" transform="translate(1637 98)" fill="#b7d3f3"/>
    <path id="Path_125" data-name="Path 125" d="M1585.5,402.6a3.7,3.7,0,1,1,3.7,3.7A3.8,3.8,0,0,1,1585.5,402.6Z" transform="translate(1637 98)" fill="#b7d3f3"/>
    <rect id="Rectangle_11" data-name="Rectangle 11" width="1" height="46.1" transform="translate(3225.7 454.5)" fill="#b7d3f3"/>
    <rect id="Rectangle_12" data-name="Rectangle 12" width="31.1" height="3.02" transform="matrix(0.787, -0.617, 0.617, 0.787, 3225.124, 500.153)" fill="#b7d3f3"/>
    <path id="Path_126" data-name="Path 126" d="M759.9,1107.3s-31.2-36.3-1.9-59.4c0,0,21.4-13,38.8-11.9,0,0-24.7,41.4-16.7,45.5s24.2-48.1,24.2-48.1,48.6-4.7,64.2,2.8c0,0-41.5,34-32.8,36s53.7-31.3,53.7-31.3,45.2,7.7,42.8,35.3-18,36.1-24.8,35.4-47-16.1-47.9-10.5,23.3,24,40.2,24.9c0,0-31.9,35.2-53.1,25s-23-26.2-36.3-32.3-24.5-6-19,.1,29.4,12.2,36.9,25.6,14.4,22.4-7.6,19.1-57.6-19.4-59.1-37.8Z" transform="translate(1637 98)" fill="#c8dbf4"/>
    <path id="Path_127" data-name="Path 127" d="M910,1076.9s-122.9-4.7-150.1,30.4c0,0-6,18-24.5,34.4l-2.8,7.8s21.3-22.4,28.9-23.8C761.5,1125.7,749.6,1082.2,910,1076.9Z" transform="translate(1637 98)" fill="#c8dbf4"/>
    <path id="Path_128" data-name="Path 128" d="M735.4,1141.7s-26.4,19.5-28.2,54.4l4.8.4s8.4-36.1,23.7-50.2S735.4,1141.7,735.4,1141.7Z" transform="translate(1637 98)" fill="#c8dbf4"/>
    <path id="Path_129" data-name="Path 129" d="M650.9,1061.6s49.6-27.8,26.5-65.5c0,0-18.6-23.1-38.4-29.1,0,0,10.6,56.2,0,57.6s-7.3-63.5-7.3-63.5-52.2-25.2-72.7-23.2c0,0,32.4,54.9,21.8,53.6s-46.9-56.9-46.9-56.9-53.6-9.9-62.2,21.8,5.3,47.7,13.2,49.6,58.9,1.4,57.6,8-35.8,17.2-54.9,11.2c0,0,21.1,52.3,48.9,49.6s36.4-19.8,53.6-21.1,29.7,3.3,21.1,7.9-37.7,1.5-51.6,13.3-25.1,19.1.7,24.4,72.1,2,81.3-17.9Z" transform="translate(1637 98)" fill="#c8dbf4"/>
    <path id="Path_130" data-name="Path 130" d="M496.2,966.4s138.8,44.9,154.7,95.2c0,0-.7,22.5,13.2,48.3v9.9s-14.5-33.7-22.5-38.4C641.6,1081.4,672.7,1037.8,496.2,966.4Z" transform="translate(1637 98)" fill="#c8dbf4"/>
    <path id="Path_131" data-name="Path 131" d="M664.1,1109.9s21.4,32.5,9.2,72.1l-5.5-1.5s5.4-43.6-5.8-65.5S664.1,1109.9,664.1,1109.9Z" transform="translate(1637 98)" fill="#c8dbf4"/>
    <path id="Path_132" data-name="Path 132" d="M729.8,1023.3s-65.4-36.6-34.9-86.3c0,0,24.4-30.5,50.6-38.4,0,0-14,74.1,0,75.9s9.6-83.7,9.6-83.7,68.8-33.1,95.9-30.5c0,0-42.7,72.3-28.8,70.6s61.9-75,61.9-75,70.6-13,81.9,28.8-6.9,62.8-17.4,65.4-77.6,1.7-75.8,10.4,47,22.7,72.3,14.8c0,0-27.9,68.9-64.5,65.4s-47.9-26.1-70.6-27.9-39.2,4.4-27.9,10.5,49.7,2,68,17.5,33.1,25.2-.9,32.2-95,2.6-107.2-23.6Z" transform="translate(1637 98)" fill="#d4e4f8"/>
    <path id="Path_133" data-name="Path 133" d="M933.8,897.8s-183.1,59.2-204,125.5c0,0,.9,29.6-17.4,63.6V1100s19.1-44.5,29.6-50.6C742,1049.4,701,991.9,933.8,897.8Z" transform="translate(1637 98)" fill="#d4e4f8"/>
    <path id="Path_134" data-name="Path 134" d="M712.4,1086.9s-28.3,42.9-12.2,95.1l7.3-2s-7.1-57.5,7.7-86.4S712.4,1086.9,712.4,1086.9Z" transform="translate(1637 98)" fill="#d4e4f8"/>
    <path id="Path_135" data-name="Path 135" d="M727.6,1295.1a128.1,128.1,0,0,0,128.1-128H599.5a128.1,128.1,0,0,0,128.1,128Z" transform="translate(1637 98)" fill="#d4e4f8"/>
    <path id="Path_136" data-name="Path 136" d="M857.4,1301.6H597.8a15.8,15.8,0,0,1,15.8-15.8h228A15.8,15.8,0,0,1,857.4,1301.6Z" transform="translate(1637 98)" fill="#d4e4f8"/>
    <rect id="Rectangle_13" data-name="Rectangle 13" width="263.2" height="3.93" transform="translate(2232.3 1265.1)" fill="#9fc1f4"/>
    <path id="Path_137" data-name="Path 137" d="M884.2,1309.5v12.2c0,4.4-1.4,7.9-3.1,7.9H432.7c-1.7,0-3.1-3.5-3.1-7.9v-12.2c0-4.3,1.4-7.9,3.1-7.9H881.1C882.8,1301.6,884.2,1305.2,884.2,1309.5Z" transform="translate(1637 98)" fill="#9abfe2"/>
    <path id="Path_138" data-name="Path 138" d="M884.2,1309.5v12.2c0,4.4-1.3,7.9-2.8,7.9H525.3c-1.5,0-2.8-3.5-2.8-7.9v-12.2c0-4.3,1.3-7.9,2.8-7.9H881.4C882.9,1301.6,884.2,1305.2,884.2,1309.5Z" transform="translate(1637 98)" fill="#bad4f4"/>
    <rect id="Rectangle_14" data-name="Rectangle 14" width="318.4" height="464.06" transform="translate(2089.3 1427.6)" fill="#c8dbf4"/>
    <rect id="Rectangle_15" data-name="Rectangle 15" width="318.4" height="464.06" transform="translate(2178.5 1427.6)" fill="#dfebfd"/>
    <path id="Path_139" data-name="Path 139" d="M842.8,1768H558.7V1342.7H842.8Zm-281.1-3.1H839.8V1345.7H561.7Z" transform="translate(1637 98)" fill="#b7d3f3"/>
    <rect id="Rectangle_16" data-name="Rectangle 16" width="281.1" height="3.07" transform="translate(2197.2 1581.4)" fill="#b7d3f3"/>
    <rect id="Rectangle_17" data-name="Rectangle 17" width="281.1" height="3.07" transform="translate(2197.2 1724.8)" fill="#b7d3f3"/>
    <path id="Path_140" data-name="Path 140" d="M729.6,1370.1H677.4a4.7,4.7,0,0,1-4.6-4.6h0a4.7,4.7,0,0,1,4.6-4.6h52.2a4.7,4.7,0,0,1,4.6,4.6h0a4.7,4.7,0,0,1-4.6,4.6Z" transform="translate(1637 98)" fill="#b7d3f3"/>
    <path id="Path_141" data-name="Path 141" d="M729.6,1510.4H677.4a4.7,4.7,0,0,1-4.6-4.6h0a4.6,4.6,0,0,1,4.6-4.6h52.2a4.6,4.6,0,0,1,4.6,4.6h0a4.7,4.7,0,0,1-4.6,4.6Z" transform="translate(1637 98)" fill="#b7d3f3"/>
    <path id="Path_142" data-name="Path 142" d="M729.6,1656.6H677.4a4.7,4.7,0,0,1-4.6-4.6h0a4.7,4.7,0,0,1,4.6-4.6h52.2a4.7,4.7,0,0,1,4.6,4.6h0a4.7,4.7,0,0,1-4.6,4.6Z" transform="translate(1637 98)" fill="#b7d3f3"/>
    <path id="Path_143" data-name="Path 143" d="M522.8,1238v64.5h-65v-64.7c0-.6.1-1.2.1-1.9a20,20,0,0,1,12-16.4,13.1,13.1,0,0,0,8.3-11.3l.4-9.3h23.9v9.3a12.8,12.8,0,0,0,8,11.4,19.8,19.8,0,0,1,12.1,16.3,14.785,14.785,0,0,1,.2,2.1Z" transform="translate(1637 98)" fill="#c8dbf4"/>
    <path id="Path_144" data-name="Path 144" d="M504.2,1203H476.4l.7-7.3h26.4Z" transform="translate(1637 98)" fill="#b7d3f3"/>
    <path id="Path_145" data-name="Path 145" d="M522.8,1238v41.6h-65v-41.8c0-.6.1-1.2.1-1.9h64.8A14.8,14.8,0,0,1,522.8,1238Z" transform="translate(1637 98)" fill="#fff"/>
    <path id="Path_146" data-name="Path 146" d="M576.3,1266.4v36.1H539.9v-37.2a11,11,0,0,1,6.8-9.2,7.5,7.5,0,0,0,4.6-6.4l.2-5.2h13.4v5.2a7,7,0,0,0,4.4,6.4,11.2,11.2,0,0,1,6.8,9.2A3.6,3.6,0,0,1,576.3,1266.4Z" transform="translate(1637 98)" fill="#c8dbf4"/>
    <path id="Path_147" data-name="Path 147" d="M565.8,1246.8H550.2l.5-4h14.7Z" transform="translate(1637 98)" fill="#b7d3f3"/>
    <path id="Path_148" data-name="Path 148" d="M576.3,1266.4v23.3H539.9v-24.4h36.3C576.2,1265.6,576.3,1266,576.3,1266.4Z" transform="translate(1637 98)" fill="#fff"/>
    <rect id="Rectangle_18" data-name="Rectangle 18" width="744.8" height="1361.48" transform="translate(3524.4 534.2)" fill="#d3e3f7"/>
    <rect id="Rectangle_19" data-name="Rectangle 19" width="680.3" height="1337.56" transform="translate(3557.1 558.2)" fill="#e5effb"/>
    <path id="Path_149" data-name="Path 149" d="M2485,1119.8a30.1,30.1,0,1,1,30.1,30.1,30.1,30.1,0,0,1-30.1-30.1Z" transform="translate(1637 98)" fill="#d3e3f7"/>
    <rect id="Rectangle_20" data-name="Rectangle 20" width="280.8" height="88.65" transform="translate(3757.8 760.9)" fill="#f5f9fd"/>
    <rect id="Rectangle_21" data-name="Rectangle 21" width="176.6" height="9.12" transform="translate(3809.9 788.3)" fill="#d3e3f7"/>
    <rect id="Rectangle_22" data-name="Rectangle 22" width="127.2" height="9.12" transform="translate(3834.6 812.9)" fill="#d3e3f7"/>
    <path id="Path_150" data-name="Path 150" d="M2405,754.9H2117.4V659.5H2405Zm-280.8-6.8h274.1V666.2H2124.2Z" transform="translate(1637 98)" fill="#bad4f4"/>
    <path id="Path_151" data-name="Path 151" d="M1938.4,568.8c-23.3-12.1-42-4.5-42-4.5-71.3-8.3-92.2,74.8-91.2,103.5s4.2,59.3-27.6,96.5c-92,107.4,100.7,112.2,100.7,112.2,1.6-85.9,104.5-54.5,100-45.8C2110.2,862.3,1991.4,596.3,1938.4,568.8Z" transform="translate(1637 98)" fill="#0c2245"/>
    <path id="Path_152" data-name="Path 152" d="M1663.2,926.6s-12.5-19.1-22.6-19.5-28.9-5.6-27.4-1.8,13.1,4.1,14.3,6.3-17.3,5.6-22.5,6-17.6,0-17.2,2.6,22.2,13.5,37.7,12,34.5,4.5,34.5,4.5Z" transform="translate(1637 98)" fill="#fba691"/>
    <path id="Path_153" data-name="Path 153" d="M1844.6,932.8a188.9,188.9,0,0,1-19.1,29c-15,18.7-37.9,40.2-66.8,44.5-13.8,2-27.3-.9-39.6-6.5h-.1c-35-15.5-61.4-51.3-61.4-51.3-6.2-16.8,3.9-28.3,3.9-28.3s70.8,15.9,77.5,12.6,46.1-116.7,55.5-130.9,41.2-21.6,41.2-21.6Z" transform="translate(1637 98)" fill="#2e77e7"/>
    <path id="Path_154" data-name="Path 154" d="M1825.5,961.8c-15,18.7-37.9,40.2-66.8,44.5-13.8,2-27.3-.9-39.6-6.5,1.3.2,36.3,4.6,50.3-20.4s29.6-65.9,50.7-52.4C1829.3,932.8,1828.9,947.2,1825.5,961.8Z" transform="translate(1637 98)" fill="#3280fa"/>
    <path id="Path_155" data-name="Path 155" d="M2108.7,1696.7s21.6,19.7,17.3,33.7-23.7,23.3-26.3,40.4-13.2,26.5-22.6,26.5h-45.2s-7-12.1,9.8-15.7,23.2-23.7,22.2-42.4,1.6-43.6,1.6-43.6l35.8-8.3Z" transform="translate(1637 98)" fill="#3280fa"/>
    <path id="Path_156" data-name="Path 156" d="M1925.9,1705s7.8,83.5-1.7,88.2l-121.3-.2s0-14,19.4-17.2,53.8-14.5,59.6-39.9S1925.9,1705,1925.9,1705Z" transform="translate(1637 98)" fill="#3280fa"/>
    <path id="Path_157" data-name="Path 157" d="M2012.4,1106.1c-25-56-40.3-72.1-37.4-89.4,2.2-13-6.6-241.2-6.6-241.2-2.9-.9-8.9-1.7-12.1-2.5a30.2,30.2,0,0,1-22.3-19.3c-4.2-11.9-7.6-29.5-7.5-51.5l-3.2.6-53.8,10.7s1.2,16.9,1.3,32.8v.4a31.2,31.2,0,0,1-22.4,30l-12.7,3.6s-19.7,56.4-23.5,114.3,35.9,83.1-.3,198.8C1775,1211.6,2026.1,1137,2012.4,1106.1Z" transform="translate(1637 98)" fill="#fba691"/>
    <path id="Path_158" data-name="Path 158" d="M1869.5,713.5s1.2,16.9,1.3,32.8c30.1-.8,46-28.3,52.5-43.5Z" transform="translate(1637 98)" fill="#fb876b"/>
    <path id="Path_159" data-name="Path 159" d="M1859.4,728.6s71.2,1.2,71.3-43.2,9.3-74.1-36.2-76.7-54.3,14.3-57.9,29.1S1840.9,727.1,1859.4,728.6Z" transform="translate(1637 98)" fill="#fba691"/>
    <path id="Path_160" data-name="Path 160" d="M1862.1,607.6s19.5,52.1,49.4,59.7,42.9-.3,42.9-.3-23-18.2-27.7-50C1926.7,617,1876.8,582.9,1862.1,607.6Z" transform="translate(1637 98)" fill="#0c2245"/>
    <path id="Path_161" data-name="Path 161" d="M1866.9,611.9s-14.4,5.4-20.4,15.9a70.308,70.308,0,0,0-9.6,40.7s-14.7-35.4,1.8-55.4S1866.9,611.9,1866.9,611.9Z" transform="translate(1637 98)" fill="#0c2245"/>
    <path id="Path_162" data-name="Path 162" d="M1874.9,701.1a18,18,0,0,1-14.7,6,13.3,13.3,0,0,1-11-7.3S1863.8,696.3,1874.9,701.1Z" transform="translate(1637 98)" fill="#fff"/>
    <path id="Path_163" data-name="Path 163" d="M2002.7,876.5s-.3,33.7-2.1,64.3c-1.2,20.3-3.1,39.2-6,45.9-7.3,16.8-15.5,19.6-15.5,19.6l-63.7,15.6-22.4,5.5-70.7-21.1s-32.1-89.8-19.2-140.4,32.6-85.6,32.6-85.6,57.7,56.4,132.7-4.8Z" transform="translate(1637 98)" fill="#3280fa"/>
    <path id="Path_164" data-name="Path 164" d="M2000.6,940.8c-1.2,20.3-3.1,39.2-6,45.9-7.3,16.8-15.5,19.6-15.5,19.6l-63.7,15.6-27.7-8.1s92.4-14,82.1-93.5Z" transform="translate(1637 98)" fill="#3280fa"/>
    <path id="Path_165" data-name="Path 165" d="M1826.8,1019.9s-35,108.9-37.2,146,66.9,526.6,69.6,543.6,22.7,26.4,22.7,26.4,9.2,5.4,22.3,1.7c18.2-5.1,23.9-11.3,23.9-11.3s27.3-349.1,10.4-473.8-17-232.6-17-232.6Z" transform="translate(1637 98)" fill="#0c2245"/>
    <path id="Path_166" data-name="Path 166" d="M1975,1016.7s53.4,71.6,58.4,120,7.8,218.3,18.4,265.5,49.5,138,49.5,285.1c0,0-4.1,8.5-16.6,13a139.624,139.624,0,0,1-14.5,4,22.9,22.9,0,0,1-25.6-12.1c-26.3-53-110.2-224-114.5-259.5-3-25.1-29.5-191.3-87.2-288.8-13.9-23.4,8.5-116.5,8.5-116.5Z" transform="translate(1637 98)" fill="#234374"/>
    <path id="Path_167" data-name="Path 167" d="M1821.2,1003.1s14.1,11.1,42,11.7c33.3.6,115.9-8.5,115.9-8.5a70,70,0,0,1,3.5,21.1s-100.9,25.4-159.3,3.7C1823.3,1031.1,1815.8,1016.9,1821.2,1003.1Z" transform="translate(1637 98)" fill="#ffaa2c"/>
    <path id="Path_168" data-name="Path 168" d="M1855.2,1043.5c-8.4,0-15.2-7.7-15.2-17.2s6.8-17.2,15.2-17.2,15.2,7.7,15.2,17.2S1863.6,1043.5,1855.2,1043.5Zm0-29.4c-5.6,0-10.2,5.5-10.2,12.2s4.6,12.2,10.2,12.2,10.1-5.5,10.1-12.2S1860.8,1014.1,1855.2,1014.1Z" transform="translate(1637 98)" fill="#fff"/>
    <rect id="Rectangle_23" data-name="Rectangle 23" width="162.3" height="90.99" transform="translate(3567.554 1230.786) rotate(-12.2)" fill="#ffaa2c"/>
    <path id="Path_169" data-name="Path 169" d="M1930.1,1134s44.4,37.2,93.7,24.2,65-58.4,65-58.4Z" transform="translate(1637 98)" fill="#fdcc50"/>
    <path id="Path_170" data-name="Path 170" d="M1952.3,1137a8.8,8.8,0,1,1,8.8-8.8,8.8,8.8,0,0,1-8.8,8.8Zm0-14.7a5.8,5.8,0,0,0-5.9,5.9,5.9,5.9,0,0,0,5.9,5.9,6,6,0,0,0,5.9-5.9A5.9,5.9,0,0,0,1952.3,1122.3Z" transform="translate(1637 98)" fill="#fff"/>
    <path id="Path_171" data-name="Path 171" d="M2081.5,1139.3s0,12.9,2.5,19.2,9.8,14.5,12.2,14.5-2.2-13-1-12.7,7.1,21.5,11.4,22,8.1-23.8,5.9-33.4-11.9-21.1-11.9-21.1Z" transform="translate(1637 98)" fill="#ffb27d"/>
    <path id="Path_172" data-name="Path 172" d="M1968.4,775.5s39.4,5.3,60.6,47.1c16.4,32.3,27.6,133.8,39.2,165.8s26.3,89.7,34.8,137.1a7.8,7.8,0,0,1-4.8,8.7l-14.5,5.7a7,7,0,0,1-8.4-2.8c-12.9-21.7-63.6-108.2-81.2-158.3-20.6-58.5-59.2-94.8-59.2-94.8Z" transform="translate(1637 98)" fill="#2e77e7"/>
    <path id="Path_173" data-name="Path 173" d="M1949.4,1121.4c-.1-1.5-9.3-146.3-7.5-227.7.9-42.7,7.5-72.8,12.9-90.6,5.9-19.3,14.6-27.2,14.9-27.6l2.9.9c-.2.3-24.5,36.9-26.2,117.4s7.4,225.8,7.5,227.3Z" transform="translate(1637 98)" fill="#fff"/>
    <path id="Path_174" data-name="Path 174" d="M1193.5,1792.8h74.9a186.107,186.107,0,0,0-6-26.9,80.911,80.911,0,0,0-4.2-10.8c-7.3-14.5-53.5-5.3-53.5-5.3s-4.3,3.7-7.7,17.8A149.094,149.094,0,0,0,1193.5,1792.8Z" transform="translate(1637 98)" fill="#3280fa"/>
    <path id="Path_175" data-name="Path 175" d="M1330.9,649.8s59.6,10.5,73.1,45.7,89.7,603.7,89.7,603.7-37.8,29.8-118.7,19.1S1330.9,649.8,1330.9,649.8Z" transform="translate(1637 98)" fill="#3280fa"/>
    <path id="Path_176" data-name="Path 176" d="M1419.7,1769.2c.2,10.1,1.4,19.8,5.1,23.6h148c-1.8-5.4-7.2-13.4-22.4-15.9-17.2-2.8-44.1-11.1-59.9-27.7a44.4,44.4,0,0,1-11.5-21c-7-31-57.6,9.5-57.6,9.5a237.16,237.16,0,0,0-1.7,31.5Z" transform="translate(1637 98)" fill="#3280fa"/>
    <path id="Path_177" data-name="Path 177" d="M1483.4,1754.1c-16.5,5.3-48.2,21.4-68.2,13.8-13-4.9-85.6-214.7-90.3-306.5-.3-6.7-1.6-16-3.7-27.4-4.3-23.7-11.8-56.2-20.4-92.1-23.3-96.3-54.7-216.7-54-255.1,1.1-59.8,178-12.6,178-12.6s12.2,49,14.6,120c4.8,140.8,18,378.6,54,543.8C1494.9,1745,1490.3,1751.9,1483.4,1754.1Z" transform="translate(1637 98)" fill="#0c2245"/>
    <path id="Path_178" data-name="Path 178" d="M1360.6,1087,1267,1764.9s-41,9.9-73,2c0,0-27.4-360.6-25.1-447.7s-19.6-233.3,5-249.4S1360.6,1087,1360.6,1087Z" transform="translate(1637 98)" fill="#234374"/>
    <path id="Path_179" data-name="Path 179" d="M1162.1,680.9s98.3-63.6,168.8-31.1c11.2,5.2,24.1,19.7,33.2,29.8,25.5,28.1,75.3,474.2,75.3,474.2s-141.3,47.8-277.3-16.3Z" transform="translate(1637 98)" fill="#fff"/>
    <path id="Path_180" data-name="Path 180" d="M1336.5,648.2s99.5,40.8,113,72.1,57.3,223.8,57.3,246.4-76.3,5-88.6-31.4c-10.2-30.2-44.6-123-62.7-181.8Z" transform="translate(1637 98)" fill="#3280fa"/>
    <path id="Path_181" data-name="Path 181" d="M1315.8,679.3c-21.7,4.3-53.6-.3-77-15.7,10.6-25.2,14.9-45.1,16.4-58l.3-1.9c.7-6.7.6-11.2.2-13.3h56.2s15.4,7,15.4,11.9v7.4c.1,6.5.4,12.1.7,16.9,1.1,15.8,2.9,23.2,2.9,23.2S1337.8,675,1315.8,679.3Z" transform="translate(1637 98)" fill="#fba691"/>
    <path id="Path_182" data-name="Path 182" d="M1328,626.6c-42.5,8.3-67.2-15-72.8-21l-1.1-1.3,1.4-.6c15.8-6.5,51.8-1.4,71.8,6C1327.4,616.2,1327.7,621.8,1328,626.6Z" transform="translate(1637 98)" fill="#fb876b"/>
    <path id="Path_183" data-name="Path 183" d="M1241.3,581.1c7.6,41,60.5,39.6,83.3,37.1,6.4-.8,10.4-1.6,10.4-1.6,7.3-1.9,11.3-13.3,13.2-28.3,3.7-29.5-1-72.9-6-84-7.5-16.7-21.7-34.8-74.8-21.8S1231.6,528.7,1241.3,581.1Z" transform="translate(1637 98)" fill="#fba691"/>
    <path id="Path_184" data-name="Path 184" d="M1344.2,481.4c-7.3-10-22.7-22.3-36.7-29.9-30-16.2-68.5.5-68.7.6-43.4,19.1-54.8,52.3-31.7,104.1,24.3,54.7,47.5,48.6,47.5,48.6s-4.9-3.1-4.5-20.1c0-1,.1-1.8.1-2.5a11.5,11.5,0,0,0-3.6-9.4c-5.4-4.8-8-19.3-3.5-23.4s13.1,1.1,15.6,5.6a6.5,6.5,0,0,0,9.5,2.1c13.5-8.5,4.7-25.6,17.6-36.1s39.2-1.6,58.6-10C1369.7,501.6,1349.7,489,1344.2,481.4Z" transform="translate(1637 98)" fill="#0c2245"/>
    <path id="Path_185" data-name="Path 185" d="M1350.3,1340.9q-12.9,3.3-25.5,5.4c-7.5,1.3-14.9,2.2-22.3,2.9-42.1,3.6-84.3-2.3-133.7-16.4-11.1-3.2-22.6-6.9-34.5-10.9-1.3-.4,3.2-131,8.4-265.7.5-13.9,1.1-27.9,1.6-41.7.3-5.9.5-11.8.7-17.6,4.8-119.1,9.4-226.7,10.4-232.5,2.3-13.1,4.4-24.3,6.7-34,6.7-28.2,15.1-43.7,33.3-57,1.8-1.4,16.3-8.7,29.2-15.1l20.1-9.9h0c4.3,2.1,9.3,11.8,14.7,25.4,9.7,25.1,20.3,63.6,27.7,92.3h0c4.7,18.6,8.1,33,9.1,37.2,1.6,7,3.8,20.5,6.3,38.9,3.5,25,7.6,58.9,12,97.4.4,4,.9,8,1.3,12s1.1,9.3,1.6,14c.2,1.5.3,3.1.5,4.6,1.7,15.2,3.4,31,5.1,46.9,1.4,13.3,21.4,22.8,22.8,36.3.8,7.9,2.5,80.7,4.6,104C1352,1174.1,1350.9,1333.1,1350.3,1340.9Z" transform="translate(1637 98)" fill="#3280fa"/>
    <path id="Path_186" data-name="Path 186" d="M1205.2,812.4c-.1.3-3.4,120.5,87,135.1s30.3,18.4,30.3,18.4-170.1-7.2-172.9-11.7S1205.2,812.4,1205.2,812.4Z" transform="translate(1637 98)" fill="#2e77e7"/>
    <path id="Path_187" data-name="Path 187" d="M1281.6,999.1l-5,3.3h-.1c-13.8,8.8-54.8,32.8-114.4,48.9-6.3,1.7-12.7,3.3-19.4,4.8.5-13.9,1.1-27.9,1.6-41.7a212.317,212.317,0,0,1-22.4-3.1c.3-1.9.5-3.7.7-5.5,7.6-3.2,15.2-6.2,22.4-9l17.1-6.6c24.5-9.3,42.6-15.6,42.6-15.6l72.5,23Z" transform="translate(1637 98)" fill="#2e77e7"/>
    <path id="Path_188" data-name="Path 188" d="M1300.8,997.1s-9.4,2.3-24.2,5.3h-.1c-27.4,5.5-73.3,13.2-114.4,12.8-6.1-.1-12-.3-17.8-.7a212.29,212.29,0,0,1-22.4-3.1c-15-3.2-27.6-8.6-35.8-17-61.1-62.2,33.3-285.4,53.2-307.2,23.2-25.3,65.5-34.2,88.8-37.3l2.8-.3c8.2-1,13.5-1.2,13.8-1.2h0l-4.9,15.9c-1.2,3.8-2.6,8.3-4.1,13.3-14.3,47-42,139.3-54.2,191.4-4.5,19-6.9,32.7-5.8,36.8,4.8,17.7,54.1,26.9,85.4,30.9,13,1.7,22.9,2.5,25.2,2.7h.4l1.8,7.4,4.4,17.8,4.2,17.5Z" transform="translate(1637 98)" fill="#3280fa"/>
    <path id="Path_189" data-name="Path 189" d="M1471.1,1104.1l-209.8-8.8,42.6-261.4,209.8,8.8Z" transform="translate(1637 98)" fill="#0c2245"/>
    <path id="Path_190" data-name="Path 190" d="M1286.7,939.4s40.8-2.8,42.9,6.7c4.8,22.2-35.1,40.4-48,39.1S1277.3,937.9,1286.7,939.4Z" transform="translate(1637 98)" fill="#fba691"/>
    <path id="Path_191" data-name="Path 191" d="M1502.2,895.8s-39.1-12.2-43.3-3.5c-9.7,20.5,24.8,47.5,37.7,49.3S1511.7,896.5,1502.2,895.8Z" transform="translate(1637 98)" fill="#fba691"/>
    <path id="Path_192" data-name="Path 192" d="M1249,635.3s-17.2,8.1-25.8,20.5c0,0,64.2,111.5,63.9,110.4S1265.4,649.5,1249,635.3Z" transform="translate(1637 98)" fill="#2e77e7"/>
    <path id="Path_193" data-name="Path 193" d="M1328.9,636.8c5.7,2.2,16.5,13.3,19,19.4l7.6,97.3s-16.3-71.4-24.6-103.7a57.7,57.7,0,0,1-2-13Z" transform="translate(1637 98)" fill="#2e77e7"/>
    <path id="Path_194" data-name="Path 194" d="M1373.4,836.8s1.7-7.3,11.2-6.4,63.2,3.5,63.2,3.5,10.4-.2,9.4,6.4Z" transform="translate(1637 98)" fill="#234374"/>
    <path id="Path_195" data-name="Path 195" d="M1311.9,590.4a22.7,22.7,0,0,0,18.2,4.4c6.7-1.2,10.4-9.9,10.4-9.9S1327.7,582.6,1311.9,590.4Z" transform="translate(1637 98)" fill="#fff"/>
    <rect id="Rectangle_24" data-name="Rectangle 24" width="2790.1" height="9.04" rx="3.5" transform="translate(1833.1 1890.8)" fill="#2e3552"/>
  </g>
</svg>
