<?xml version="1.0" encoding="UTF-8"?>
<svg width="551px" height="1076px" viewBox="0 0 551 1076" version="1.1" xmlns="http://www.w3.org/2000/svg" xmlns:xlink="http://www.w3.org/1999/xlink">
    <!-- Generator: Sketch 58 (84663) - https://sketch.com -->
    <title>BG Shape</title>
    <desc>Created with Sketch.</desc>
    <defs>
        <polygon id="path-1" points="0.000641459652 0.000572577987 1070.57046 0.000572577987 1070.57046 959.56224 0.000641459652 959.56224"></polygon>
    </defs>
    <g id="Page-1" stroke="none" stroke-width="1" fill="none" fill-rule="evenodd">
        <g id="Artboard" transform="translate(0.000000, -5145.000000)">
            <g id="Section-8" transform="translate(-650.000000, 4988.000000)">
                <g id="Section-7">
                    <g id="BG-Shape" transform="translate(701.667969, 680.093750) rotate(151.000000) translate(-701.667969, -680.093750) translate(166.167969, 200.093750)">
                        <mask id="mask-2" fill="white">
                            <use xlink:href="#path-1"></use>
                        </mask>
                        <g id="Clip-2"></g>
                        <path d="M885.96192,706.805568 C946.90272,656.872128 884.86944,563.717568 917.31744,487.723968 C957.768,392.983488 1030.13856,419.823168 1062.84384,337.046208 C1095.88896,253.416768 1016.42784,137.646528 947.78016,79.891008 C865.75776,10.884288 745.67904,-20.306112 646.13856,14.056128 C540.80352,50.417088 557.44224,126.015168 441.51456,193.272768 C292.67424,279.626688 196.99488,194.603328 94.97952,280.498368 C0.30816,360.209088 -24.4273277,498.167481 23.2850405,570.058581 C72.502803,644.217949 139.272,610.175808 177.98112,663.006528 C228.04704,731.343168 162.686752,797.109595 226.877861,887.572303 C291.06897,978.035011 411.73344,974.194368 509.9088,941.022528 C583.30272,916.225728 532.81632,813.375168 650.14944,741.686208 C787.09344,658.016448 822.12768,759.108288 885.96192,706.805568 Z" id="Fill-1" fill="#ECEEF7" mask="url(#mask-2)"></path>
                    </g>
                </g>
            </g>
        </g>
    </g>
</svg>