<svg xmlns="http://www.w3.org/2000/svg" width="33.502" height="33.502" viewBox="0 0 33.502 33.502">
  <path id="call" d="M28.593,4.9A16.751,16.751,0,1,0,33.5,16.747,16.751,16.751,0,0,0,28.593,4.9ZM25.368,23.333l0,0V23.33l-.849.843A4.467,4.467,0,0,1,20.3,25.379a14.842,14.842,0,0,1-4.311-1.932,19.916,19.916,0,0,1-3.4-2.742,20.069,20.069,0,0,1-2.541-3.082,15.632,15.632,0,0,1-1.91-3.864A4.467,4.467,0,0,1,9.257,9.2l.994-.994a.709.709,0,0,1,1,0l0,0,3.138,3.138a.709.709,0,0,1,0,1l0,0L12.552,14.19a1.5,1.5,0,0,0-.156,1.954A21.549,21.549,0,0,0,14.6,18.718a21.417,21.417,0,0,0,2.9,2.44,1.513,1.513,0,0,0,1.932-.168l1.781-1.809a.709.709,0,0,1,1,0l0,0,3.144,3.149A.709.709,0,0,1,25.368,23.333Z" transform="translate(0 0)" fill="#0180ff"/>
</svg>
