<svg id="car-lg" xmlns="http://www.w3.org/2000/svg" width="65.432" height="29.947" viewBox="0 0 65.432 29.947">
  <g id="Group_267" data-name="Group 267" transform="translate(8.724 19.042)">
    <g id="Group_266" data-name="Group 266">
      <path id="Path_3023" data-name="Path 3023" d="M363.853,287.834a5.453,5.453,0,1,1-5.453,5.453A5.459,5.459,0,0,1,363.853,287.834Zm0,8.724a3.272,3.272,0,1,0-3.272-3.272A3.276,3.276,0,0,0,363.853,296.558Z" transform="translate(-358.4 -287.834)" fill="#777676"/>
    </g>
  </g>
  <g id="Group_269" data-name="Group 269" transform="translate(45.802 19.042)">
    <g id="Group_268" data-name="Group 268">
      <path id="Path_3024" data-name="Path 3024" d="M73.719,287.834a5.453,5.453,0,1,1-5.453,5.453A5.459,5.459,0,0,1,73.719,287.834Zm0,8.724a3.272,3.272,0,1,0-3.272-3.272A3.276,3.276,0,0,0,73.719,296.558Z" transform="translate(-68.266 -287.834)" fill="#777676"/>
    </g>
  </g>
  <g id="Group_271" data-name="Group 271" transform="translate(0 0)">
    <g id="Group_270" data-name="Group 270">
      <path id="Path_3025" data-name="Path 3025" d="M1.09,157.875v-6.543a1.089,1.089,0,0,1,.746-1.035l6.154-2.051c2.317-3.925,5.5-7.66,12.542-8.893l.039-.007c13-1.8,22.76,1.135,29.026,8.719,7.244.1,14.744,2.389,14.744,6.539v3.272a1.091,1.091,0,0,1,1.09,1.09v4.362a1.091,1.091,0,0,1-1.09,1.09H59.979a1.091,1.091,0,0,1-1.09-1.09,7.634,7.634,0,0,0-15.267,0,1.091,1.091,0,0,1-1.09,1.09H22.9a1.091,1.091,0,0,1-1.09-1.09,7.634,7.634,0,0,0-15.267,0,1.091,1.091,0,0,1-1.09,1.09H1.09A1.091,1.091,0,0,1,0,163.327v-4.362A1.09,1.09,0,0,1,1.09,157.875Zm14.124-14.334a14.66,14.66,0,0,0-4.53,4.519h4.573Zm13.14-2.527a49.6,49.6,0,0,0-7.465.491,18.119,18.119,0,0,0-3.5.967l.053,5.589H28.353Zm2.181.093v6.954H46.65C42.608,143.891,37.277,141.587,30.534,141.107ZM2.181,162.237H4.422a9.816,9.816,0,0,1,19.51,0H41.5a9.816,9.816,0,0,1,19.51,0h2.241v-2.181a1.091,1.091,0,0,1-1.09-1.09v-3.272H61.07a1.09,1.09,0,0,1,0-2.181h.565c-1.476-1.6-5.989-3.272-12.561-3.272H8.9l-5.63,1.877v1.395h1.09a1.09,1.09,0,0,1,0,2.181H3.271v3.272a1.091,1.091,0,0,1-1.09,1.09Z" transform="translate(0 -138.833)" fill="#777676"/>
    </g>
  </g>
</svg>
