<svg id="car" xmlns="http://www.w3.org/2000/svg" width="26.024" height="11.911" viewBox="0 0 26.024 11.911">
  <g id="Group_267" data-name="Group 267" transform="translate(3.47 7.573)">
    <g id="Group_266" data-name="Group 266">
      <path id="Path_3023" data-name="Path 3023" d="M360.569,287.834A2.169,2.169,0,1,1,358.4,290,2.171,2.171,0,0,1,360.569,287.834Zm0,3.47a1.3,1.3,0,1,0-1.3-1.3A1.3,1.3,0,0,0,360.569,291.3Z" transform="translate(-358.4 -287.834)" fill="#777676"/>
    </g>
  </g>
  <g id="Group_269" data-name="Group 269" transform="translate(18.216 7.573)">
    <g id="Group_268" data-name="Group 268">
      <path id="Path_3024" data-name="Path 3024" d="M70.435,287.834A2.169,2.169,0,1,1,68.266,290,2.171,2.171,0,0,1,70.435,287.834Zm0,3.47a1.3,1.3,0,1,0-1.3-1.3A1.3,1.3,0,0,0,70.435,291.3Z" transform="translate(-68.266 -287.834)" fill="#777676"/>
    </g>
  </g>
  <g id="Group_271" data-name="Group 271" transform="translate(0 0)">
    <g id="Group_270" data-name="Group 270">
      <path id="Path_3025" data-name="Path 3025" d="M.434,146.406v-2.6a.433.433,0,0,1,.3-.412l2.448-.816a6.658,6.658,0,0,1,4.988-3.537l.016,0c5.17-.715,9.052.451,11.544,3.468,2.881.042,5.864.95,5.864,2.6v1.3a.434.434,0,0,1,.434.434v1.735a.434.434,0,0,1-.434.434H23.855a.434.434,0,0,1-.434-.434,3.036,3.036,0,0,0-6.072,0,.434.434,0,0,1-.434.434H9.108a.434.434,0,0,1-.434-.434,3.036,3.036,0,0,0-6.072,0,.434.434,0,0,1-.434.434H.434A.434.434,0,0,1,0,148.575V146.84A.434.434,0,0,1,.434,146.406Zm5.617-5.7a5.83,5.83,0,0,0-1.8,1.8H6.068Zm5.226-1a19.723,19.723,0,0,0-2.969.2,7.2,7.2,0,0,0-1.394.385l.021,2.223h4.342Zm.867.037V142.5h6.41A9.478,9.478,0,0,0,12.144,139.737Zm-11.277,8.4h.891a3.9,3.9,0,0,1,7.759,0h6.987a3.9,3.9,0,0,1,7.759,0h.891v-.867a.434.434,0,0,1-.434-.434v-1.3h-.434a.434.434,0,0,1,0-.867h.225c-.587-.637-2.382-1.3-5-1.3H3.54l-2.239.746v.555h.434a.434.434,0,0,1,0,.867H1.3v1.3a.434.434,0,0,1-.434.434Z" transform="translate(0 -138.833)" fill="#777676"/>
    </g>
  </g>
</svg>
