<svg xmlns="http://www.w3.org/2000/svg" width="33.5" height="33.5" viewBox="0 0 33.5 33.5">
  <path id="chat" d="M28.591,4.909A16.749,16.749,0,0,0,2.227,25.1L.046,32.164a.982.982,0,0,0,1.245,1.221l6.851-2.263A16.749,16.749,0,0,0,28.591,4.909Zm-19.692,7a.981.981,0,1,1-.981.981A.981.981,0,0,1,8.9,11.911Zm11.775,9.748H8.9a.981.981,0,1,1,0-1.963H20.674a.981.981,0,1,1,0,1.963Zm3.925,0a.981.981,0,1,1,.981-.981A.981.981,0,0,1,24.6,21.659Zm0-3.925H8.9a.981.981,0,1,1,0-1.963H24.6a.981.981,0,0,1,0,1.963Zm0-3.925H12.824a.981.981,0,1,1,0-1.963H24.6a.981.981,0,0,1,0,1.963Z" transform="translate(0)" fill="#0180ff"/>
</svg>
