<svg xmlns="http://www.w3.org/2000/svg" width="13.667" height="12.147" viewBox="0 0 13.667 12.147"><defs><style>.a{fill:#fff;}</style></defs><g transform="translate(0 -20.566)"><path class="a" d="M13.07,20.659c-.617-.334-1.3.31-1.708.692-.925.907-1.708,1.957-2.585,2.912-.972,1.05-1.874,2.1-2.87,3.126A8.6,8.6,0,0,0,4.342,29.3,31.223,31.223,0,0,0,1.8,26.817c-.688-.525-1.826-.907-1.8.358.047,1.647,1.494,3.413,2.562,4.535a2.705,2.705,0,0,0,1.732,1c.83.048,1.684-.955,2.182-1.5.878-.955,1.589-2.029,2.4-3.007,1.044-1.289,2.111-2.554,3.131-3.866C12.643,23.523,14.66,21.518,13.07,20.659ZM1.045,27.079A.179.179,0,0,0,.95,27.1a1.15,1.15,0,0,1-.261-.1h0Q.8,26.936,1.045,27.079Z" transform="translate(0 0)"/></g></svg>