<svg xmlns="http://www.w3.org/2000/svg" viewBox="0 0 438.52 375.28"><defs><style>.cls-1{fill:#dcedf9;}.cls-2{opacity:0.04;}.cls-3{fill:#007fe9;}.cls-4{fill:#0050db;}.cls-5{fill:#00a8ff;}.cls-6{fill:#28baff;}.cls-7{opacity:0.61;}.cls-8{fill:#fff;}.cls-9{fill:#2e3052;}.cls-10{fill:#524e84;}.cls-11{fill:#1a4a9f;}.cls-12{fill:#fba691;}.cls-13{fill:#001030;}.cls-14{fill:#fb876b;}.cls-15{fill:#d45c48;}</style></defs><g id="Layer_2" data-name="Layer 2"><g id="OBJECTS"><path class="cls-1" d="M394,352.65c-22.22-16.89-60.24-58.79-10.18-124.58,61.91-81.35-12.23-114.72-83.3-111.24C243.34,119.63,179,47.75,114.81,60.6,29.61,77.65,84.93,151,27.16,190.54-22.1,224.25-.95,327,63.17,352.65Z"/><path class="cls-1" d="M432.41,203.08c-.34-12.07-11.58-16.75-19.08-8a37.66,37.66,0,0,0-9.17,21.8c-1.72,21.51,17.1,15.28,24.13,3.76C431.29,215.72,432.59,209.17,432.41,203.08Z"/><path class="cls-1" d="M204.25,43.63c-12.06.32-16.76,11.55-8,19.06A37.62,37.62,0,0,0,218,71.9c21.5,1.76,15.31-17.07,3.8-24.12C216.9,44.77,210.35,43.46,204.25,43.63Z"/><path class="cls-1" d="M39.05,160.82c4.75-11.1-3.49-20.06-14-15.27A37.6,37.6,0,0,0,7.62,161.5C-2.95,180.31,16.74,182.54,28,175,32.73,171.83,36.66,166.43,39.05,160.82Z"/><ellipse class="cls-1" cx="220.03" cy="358.92" rx="203.25" ry="16.36"/><g class="cls-2"><path class="cls-3" d="M359.33,356.08a19.45,19.45,0,0,0,1.41,4.39h33c1.3-3.09,1.3-6.32-.63-9.06-12-17.13,2.82-16.78,5.17-28.49,2.57-12.85-9.66-6.2-6-23.4,5-23.31-5.87-34.51-11.39-21-5.21,12.69-2.53,17.88-15.26,27.4-10.56,7.89,7.87,20.52-2.6,33C358.63,344.19,358.28,350.54,359.33,356.08Z"/><path class="cls-4" d="M373.54,360.47c3.75-30.2,10.34-63.2,10.43-63.64a.84.84,0,0,0-1.64-.33c-.09.45-6.71,33.64-10.47,64Z"/><path class="cls-5" d="M413.63,360.47c-.07-.24-.14-.49-.22-.74-8.69-25.47,9.5-19.71,16.61-33.32,7.8-14.93-9.69-11.13,1.07-31,14.59-27,5.15-44.7-6.49-30.08-11,13.8-9.55,21.17-28.69,28.35-15.88,5.94,2.33,28.16-15.07,39.8-7.42,5-10.14,12.67-10.82,19.89a23.64,23.64,0,0,0,.37,7.13Z"/><path class="cls-3" d="M387.45,360.47c15.25-34.91,34-70.92,34.27-71.41a1.07,1.07,0,1,0-1.9-1c-.26.51-19.35,37.15-34.7,72.41Z"/><path class="cls-3" d="M80.26,356.08a18.5,18.5,0,0,1-1.41,4.39h-33c-1.3-3.09-1.3-6.32.63-9.06,12-17.13-2.81-16.78-5.16-28.49-2.58-12.85,9.65-6.2,5.94-23.4-5-23.31,5.88-34.51,11.39-21,5.21,12.69,2.53,17.88,15.27,27.4,10.56,7.89-7.87,20.52,2.59,33C81,344.19,81.32,350.54,80.26,356.08Z"/><path class="cls-4" d="M66.05,360.47c-3.75-30.2-10.34-63.2-10.42-63.64a.83.83,0,1,1,1.63-.33c.09.45,6.71,33.64,10.47,64Z"/><path class="cls-5" d="M26,360.47c.07-.24.14-.49.22-.74,8.69-25.47-9.5-19.71-16.61-33.32-7.8-14.93,9.69-11.13-1.07-31-14.59-27-5.15-44.7,6.49-30.08,11,13.8,9.56,21.17,28.7,28.35,15.87,5.94-2.34,28.16,15.06,39.8,7.42,5,10.14,12.67,10.82,19.89a24,24,0,0,1-.36,7.13Z"/><path class="cls-3" d="M52.14,360.47c-15.25-34.91-34-70.92-34.27-71.41a1.07,1.07,0,0,1,1.9-1c.26.51,19.35,37.15,34.71,72.41Z"/><path class="cls-5" d="M121.86,360.46h2.51l-3.85-10.8a50.7,50.7,0,0,1,6.92-19.27c7.17-12,9-20.44,3-20.39-7.79.06-13.37,19-11.74,34.6l-9.18-25.71c.37-3.33,1.73-9.69,6.57-17.68,6.41-10.57,11.35-23,3.47-22.3S106,298.63,107.93,314.42L100.28,293a27.75,27.75,0,0,1,4.15-11.18c4-6.66,7.15-14.48,2.18-14.06S98,280.23,99.29,290.2l-1.62-4.54C96.18,272,86.73,256.79,81,258.05s-.11,10,7.37,17.71A44.49,44.49,0,0,1,95,285.32l3.15,8.83c-5.62-6.86-13.86-11.78-17.43-9.34-4.11,2.82,3.25,6.89,10.59,9.5a30.6,30.6,0,0,1,8.49,4.47L109.56,326c-8.84-12.22-23.59-21.66-29.71-17.48C73.33,313,85,319.46,96.66,323.59a46.51,46.51,0,0,1,15,8.36l7.57,21.2c-8.53-13.36-24.84-24.36-31.35-19.9s5.15,10.94,16.8,15.07c8.7,3.08,13.76,7.08,16.19,9.43Z"/><path class="cls-5" d="M311.13,309.2l-2.47-.46,5.75-9.92a50.7,50.7,0,0,0-3.31-20.21c-4.87-13.06-5.14-21.73.76-20.59,7.64,1.47,9.69,21.11,5.25,36.16l13.7-23.62c.24-3.34.05-9.84-3.25-18.58-4.38-11.56-7-24.65.64-22.56s9.78,21.86,5,37l11.43-19.69A27.89,27.89,0,0,0,342.57,235c-2.76-7.29-4.4-15.54.41-14.22s6.16,13.84,3.11,23.42l2.42-4.17c4-13.21,16-26.41,21.46-24.11s-1.7,9.82-10.47,16.07a44.45,44.45,0,0,0-8.34,8.19l-4.7,8.1c6.77-5.72,15.77-9.06,18.83-6,3.54,3.51-4.44,6.19-12.14,7.41a30.66,30.66,0,0,0-9.16,2.86l-14.5,25c10.91-10.42,27.13-17,32.39-11.79,5.6,5.58-7.06,9.82-19.27,11.76a46.45,46.45,0,0,0-16.3,5.5L315,302.49c10.82-11.59,28.86-19.44,34.45-13.87s-7.05,9.81-19.26,11.76c-9.12,1.45-14.82,4.46-17.64,6.33Z"/></g><rect class="cls-5" x="217.36" y="269.39" width="79.39" height="114.93" transform="translate(-70.17 583.44) rotate(-89.92)"/><polygon class="cls-4" points="314.57 287.25 314.57 292.34 257.03 343.18 199.64 292.17 199.65 287.08 257.04 338.27 314.57 287.25"/><polygon class="cls-4" points="245.98 328.23 202.87 366.47 199.54 366.47 199.54 364.44 243.51 325.45 245.98 328.23"/><polygon class="cls-4" points="314.46 364.88 314.46 366.63 310.83 366.63 267.82 328.26 270.31 325.49 314.46 364.88"/><polygon class="cls-6" points="199.65 287.08 257.04 338.27 314.57 287.25 199.65 287.08"/><path class="cls-1" d="M244.86,15.39a.78.78,0,0,1-.34-.05c-1.16-.5-1.85-.72-1.85-.73a.67.67,0,0,1-.43-.86.68.68,0,0,1,.86-.43s.73.25,2,.76a.67.67,0,0,1,.36.89A.7.7,0,0,1,244.86,15.39Z"/><path class="cls-1" d="M279.56,51.92c.47,1.23.9,2.51,1.29,3.78a.69.69,0,0,0,.73.48l.13,0a.69.69,0,0,0,.45-.85c-.4-1.3-.85-2.6-1.32-3.86a.68.68,0,1,0-1.28.48Z"/><path class="cls-1" d="M281.92,59.56c.31,1.28.59,2.6.83,3.92a.68.68,0,0,0,.74.55h.06a.67.67,0,0,0,.54-.79c-.25-1.34-.53-2.69-.85-4a.68.68,0,1,0-1.32.32Z"/><path class="cls-1" d="M284.79,80.13a.69.69,0,0,0,.61-.67c0-1.36,0-2.73,0-4.07a.68.68,0,0,0-.7-.66.66.66,0,0,0-.66.7c0,1.32.05,2.67,0,4a.68.68,0,0,0,.68.69Z"/><path class="cls-1" d="M284,66.67a.68.68,0,0,0-.58.76c.08.62.15,1.24.21,1.85s.14,1.43.2,2.14a.68.68,0,0,0,.73.63h0a.69.69,0,0,0,.61-.73c-.06-.73-.13-1.46-.2-2.18s-.14-1.25-.22-1.88a.68.68,0,0,0-.75-.59Z"/><path class="cls-1" d="M278.05,48.22a.67.67,0,0,0,.69.39.46.46,0,0,0,.2,0,.68.68,0,0,0,.35-.9c-.56-1.24-1.16-2.48-1.79-3.68a.68.68,0,1,0-1.2.64C276.91,45.79,277.5,47,278.05,48.22Z"/><path class="cls-1" d="M248.14,17c1.17.6,2.35,1.25,3.51,1.93a.61.61,0,0,0,.41.09.67.67,0,0,0,.52-.33.68.68,0,0,0-.24-.93c-1.18-.7-2.39-1.36-3.58-2a.68.68,0,1,0-.62,1.21Z"/><path class="cls-1" d="M258.29,23.44a.65.65,0,0,0,.48.14.68.68,0,0,0,.34-1.22c-1.08-.82-2.19-1.63-3.32-2.38A.68.68,0,0,0,255,21.1C256.13,21.85,257.23,22.63,258.29,23.44Z"/><path class="cls-1" d="M264.35,28.67a.68.68,0,0,0,1,0,.68.68,0,0,0,0-1c-1-.94-2-1.87-3-2.76a.68.68,0,0,0-1,.08.67.67,0,0,0,.07,1C262.41,26.84,263.4,27.75,264.35,28.67Z"/><path class="cls-1" d="M269.73,34.59a.66.66,0,0,0,.6.25.7.7,0,0,0,.36-.14.68.68,0,0,0,.1-1c-.84-1.06-1.74-2.1-2.65-3.11a.67.67,0,0,0-1,0,.68.68,0,0,0-.05,1C268,32.53,268.9,33.56,269.73,34.59Z"/><path class="cls-1" d="M274.32,41.14a.69.69,0,0,0,.66.32.76.76,0,0,0,.28-.09.69.69,0,0,0,.23-.94c-.71-1.16-1.46-2.31-2.24-3.42a.68.68,0,1,0-1.12.78C272.89,38.88,273.63,40,274.32,41.14Z"/><polygon class="cls-6" points="245.13 12.52 247.92 0.3 211.3 0 245.13 12.52"/><polygon class="cls-3" points="211.3 0 243.07 13.39 243.15 13.43 244.52 15.69 244.84 10.73 211.3 0"/><polygon class="cls-4" points="244.52 15.69 241.56 15.22 243.15 13.43 244.52 15.69"/><polygon class="cls-6" points="239.16 11.74 243.15 13.43 234.92 22.7 211.3 0 239.16 11.74"/><g class="cls-7"><path class="cls-5" d="M425.33,78.55a5.31,5.31,0,1,1-5.3,5.3A5.31,5.31,0,0,1,425.33,78.55Zm0,9a3.65,3.65,0,1,0-3.64-3.65A3.65,3.65,0,0,0,425.33,87.5Z"/></g><g class="cls-7"><path class="cls-1" d="M406.24,59.94a5.31,5.31,0,1,1-5.31,5.3A5.31,5.31,0,0,1,406.24,59.94Zm0,8.94a3.64,3.64,0,1,0-3.64-3.64A3.65,3.65,0,0,0,406.24,68.88Z"/></g><g class="cls-7"><path class="cls-5" d="M399.68,42.7a.83.83,0,0,1,.83.83V47.2a.83.83,0,1,1-1.66,0V43.53A.83.83,0,0,1,399.68,42.7Z"/><path class="cls-5" d="M399.68,36.28a.83.83,0,0,1,.83.83v3.67a.83.83,0,0,1-1.66,0V37.11A.83.83,0,0,1,399.68,36.28Z"/><path class="cls-5" d="M394.53,41.33h3.3a.83.83,0,0,1,0,1.66h-3.3a.83.83,0,1,1,0-1.66Z"/><path class="cls-5" d="M401.54,41.33h3.29a.83.83,0,1,1,0,1.66h-3.29a.83.83,0,1,1,0-1.66Z"/></g><g class="cls-7"><path class="cls-1" d="M429,62.81a.81.81,0,0,1,.84.77V67a.81.81,0,0,1-.84.78.81.81,0,0,1-.83-.78V63.58A.8.8,0,0,1,429,62.81Z"/><path class="cls-1" d="M429,56.84a.81.81,0,0,1,.84.78V61a.81.81,0,0,1-.84.78.81.81,0,0,1-.83-.78v-3.4A.81.81,0,0,1,429,56.84Z"/><path class="cls-1" d="M423.82,61.53h3.3a.78.78,0,1,1,0,1.55h-3.3a.78.78,0,1,1,0-1.55Z"/><path class="cls-1" d="M430.83,61.53h3.29a.78.78,0,1,1,0,1.55h-3.29a.78.78,0,1,1,0-1.55Z"/></g><path class="cls-5" d="M68.28,51.62A5.31,5.31,0,1,1,63,56.93,5.31,5.31,0,0,1,68.28,51.62Zm0,1.67a3.64,3.64,0,1,0,3.64,3.64A3.65,3.65,0,0,0,68.28,53.29Z"/><path class="cls-1" d="M49,34.1a5.31,5.31,0,1,1-5.3,5.31A5.31,5.31,0,0,1,49,34.1Zm0,1.67a3.64,3.64,0,1,0,3.64,3.64A3.65,3.65,0,0,0,49,35.77Z"/><path class="cls-5" d="M42,64.42a.84.84,0,0,0,.83.84h3.67a.84.84,0,0,0,0-1.67H42.8A.83.83,0,0,0,42,64.42Z"/><path class="cls-5" d="M35.54,64.42a.85.85,0,0,0,.84.84h3.67a.84.84,0,0,0,0-1.67H36.38A.84.84,0,0,0,35.54,64.42Z"/><path class="cls-5" d="M40.59,59.27v3.3a.83.83,0,1,0,1.66,0v-3.3a.83.83,0,0,0-1.66,0Z"/><path class="cls-5" d="M40.59,66.28v3.3a.83.83,0,0,0,1.66,0v-3.3a.83.83,0,0,0-1.66,0Z"/><path class="cls-1" d="M81.66,35.53a.65.65,0,0,0,.7.6h3.1a.65.65,0,0,0,.7-.6.66.66,0,0,0-.7-.6h-3.1A.65.65,0,0,0,81.66,35.53Z"/><path class="cls-1" d="M74.4,35.77a.83.83,0,0,0,.83.83H78.9a.84.84,0,0,0,.84-.83.85.85,0,0,0-.84-.84H75.23A.84.84,0,0,0,74.4,35.77Z"/><path class="cls-1" d="M79.45,30.62v3.29a.83.83,0,1,0,1.66,0V30.62a.83.83,0,1,0-1.66,0Z"/><path class="cls-1" d="M79.45,37.62v3.3a.83.83,0,1,0,1.66,0v-3.3a.83.83,0,1,0-1.66,0Z"/><rect class="cls-1" x="23.67" y="99.55" width="23.41" height="23.41" rx="4.26"/><path class="cls-8" d="M42.73,106.68c0-.16-.07-.33-.11-.49a3.51,3.51,0,0,0-.8-1.51,3.42,3.42,0,0,0-1-.79,1.08,1.08,0,0,0-1.42.27l-2,2.38a1.13,1.13,0,0,0,.16,1.59c.35.31.72.6,1.09.89a1.21,1.21,0,0,0,.14.1,10.49,10.49,0,0,1-4.44,5.42l-.79-.66c-.14-.12-.27-.23-.42-.34a1.13,1.13,0,0,0-1.35-.07,1.75,1.75,0,0,0-.36.36L29.77,116a1.48,1.48,0,0,0-.35.76l0,.32a2.31,2.31,0,0,0,.31.53,4.13,4.13,0,0,0,1.18.85,3.35,3.35,0,0,0,1.67.34,7.28,7.28,0,0,0,1.13-.22,9.2,9.2,0,0,0,2.64-1.27,14.32,14.32,0,0,0,2.23-1.88,23.56,23.56,0,0,0,2.46-3.08,11,11,0,0,0,1.4-2.75,6.7,6.7,0,0,0,.31-1.53l0-.64C42.78,107.16,42.76,106.92,42.73,106.68Z"/><rect class="cls-5" x="384.07" y="235.26" width="23.76" height="23.76" rx="3.4"/><path class="cls-8" d="M403.55,246.7c0,3-1.66,4.5-3.65,4.5a2.52,2.52,0,0,1-2.45-1.35,2.41,2.41,0,0,1-2.35,1.35c-1.68,0-3.29-1.48-3.29-3.87s1.56-3.84,3.29-3.84a2.43,2.43,0,0,1,1.9.76v-.63h3v4.44c0,.65.27.85.61.85s.79-.43.79-2.17c0-2.81-2.1-4.79-5.29-4.79a5.05,5.05,0,0,0-5.32,5.18,5,5,0,0,0,5.26,5.21,7.47,7.47,0,0,0,3.13-.68l.65,1.91a9.42,9.42,0,0,1-3.78.74c-4.67,0-7.67-3.11-7.67-7.18s3-7.15,7.73-7.15C400.56,240,403.55,243,403.55,246.7Zm-6.48.63c0-.93-.48-1.41-1.12-1.41s-1.1.48-1.1,1.41.46,1.43,1.1,1.43S397.07,248.28,397.07,247.33Z"/><path class="cls-5" d="M399.53,106.5v75.81a12.82,12.82,0,0,1-12.83,12.83H205.08V65.51H358.54a41,41,0,0,1,41,41Z"/><path class="cls-6" d="M399.53,166.26v16.05a12.82,12.82,0,0,1-12.83,12.83H234.88V166.26Z"/><path class="cls-3" d="M247.9,102v93.11H165.78V102A36.61,36.61,0,0,1,202.4,65.42h9.11A36.61,36.61,0,0,1,247.9,102Z"/><path class="cls-6" d="M247.9,102v93.11h-73V102a36.61,36.61,0,0,1,36.39-36.61h.23A36.61,36.61,0,0,1,247.9,102Z"/><path class="cls-3" d="M165.78,195.14,134.5,250.2c-11.48,20.22-4.4,36.61,15.82,36.61h9.12c20.19-.12,45.74-16.46,57.19-36.61l31.27-55.06Z"/><rect class="cls-6" x="165.78" y="189.82" width="82.12" height="5.32"/><circle class="cls-3" cx="333.71" cy="98.53" r="13.17"/><circle class="cls-9" cx="333.71" cy="96.02" r="13.17"/><path class="cls-10" d="M333.71,103.67A7.65,7.65,0,1,1,341.36,96,7.66,7.66,0,0,1,333.71,103.67Z"/><path class="cls-3" d="M335.91,7.93V95.74a2.21,2.21,0,1,1-4.41,0V7.93Z"/><polygon class="cls-6" points="367.17 24.3 331.5 24.3 331.5 4.44 367.17 4.44 359.06 14.37 367.17 24.3"/><polygon class="cls-11" points="335.91 24.3 335.91 25.49 331.5 27.03 331.5 24.3 335.91 24.3"/><rect class="cls-3" x="284.6" y="195.16" width="17.56" height="168.06"/><path class="cls-3" d="M332.3,366.7H254.46v-3.8a10.71,10.71,0,0,1,10.7-10.71h56.43A10.72,10.72,0,0,1,332.3,362.9Z"/><polygon class="cls-4" points="302.15 195.16 302.15 199.69 284.6 205.84 284.6 195.16 302.15 195.16"/><path class="cls-3" d="M141.61,133.93c6.51,23.69,28,30.3,28,30.3a64.2,64.2,0,0,0,19.25-7.31c-1.58-3.79-2.27-7.65-3.15-12.66-7.9,2.2-14.73,3.37-14.73,3.37-16.68-7.73-26.8-44.74-26.8-44.74C134.23,112.3,141.61,133.93,141.61,133.93Z"/><path class="cls-12" d="M85.49,324.31l-7.06,9.44S79.72,338,85,341.22l8.44-10.86Z"/><path class="cls-5" d="M83.78,338.3s3.3-.71,4.43.43,4,16.67,6.62,20.07,0,5.2-1.65,5.89-25-22.69-25-22.69,5.78-8,8.57-9.54S80.82,336.65,83.78,338.3Z"/><path class="cls-8" d="M84.21,347.36a.56.56,0,0,1-.33-.33.62.62,0,0,1,.32-.81,9.07,9.07,0,0,1,4.45-.74,4.09,4.09,0,0,1,3.23,2.77.63.63,0,0,1-.41.77.59.59,0,0,1-.74-.42,2.93,2.93,0,0,0-2.31-1.91,8,8,0,0,0-3.76.66A.64.64,0,0,1,84.21,347.36Z"/><path class="cls-8" d="M83.83,344.88a.61.61,0,0,1-.34-.33.63.63,0,0,1,.32-.81,9.06,9.06,0,0,1,4.45-.75,4.12,4.12,0,0,1,3.24,2.78.63.63,0,0,1-.42.76.58.58,0,0,1-.73-.41A2.94,2.94,0,0,0,88,344.2a8,8,0,0,0-3.77.66A.56.56,0,0,1,83.83,344.88Z"/><path class="cls-8" d="M85.3,350a.57.57,0,0,1-.34-.34.61.61,0,0,1,.32-.8,8.94,8.94,0,0,1,4.45-.75A4.08,4.08,0,0,1,93,350.87a.62.62,0,0,1-.41.76.59.59,0,0,1-.74-.42,2.93,2.93,0,0,0-2.31-1.91,8,8,0,0,0-3.76.66A.56.56,0,0,1,85.3,350Z"/><path class="cls-12" d="M128.79,340.52l1.07,11.74s3.78,2.27,9.84,1.19l-1-13.72Z"/><path class="cls-6" d="M137.56,351.8s2.07-2.86,3.74-2.76S156,359.21,160.45,360s3.62,4.05,2.84,5.73-35.1.71-35.1.71-1.26-11.07-.18-14.22S134.12,352.59,137.56,351.8Z"/><path class="cls-8" d="M146.05,359.28a.6.6,0,0,1-.47,0,.63.63,0,0,1-.27-.83,9.12,9.12,0,0,1,2.95-3.41,4.12,4.12,0,0,1,4.26.07.63.63,0,0,1,.17.86.59.59,0,0,1-.83.15,2.9,2.9,0,0,0-3,0,8,8,0,0,0-2.47,2.91A.64.64,0,0,1,146.05,359.28Z"/><path class="cls-8" d="M144.17,357.61a.52.52,0,0,1-.47,0,.61.61,0,0,1-.27-.82,9,9,0,0,1,2.95-3.42,4.11,4.11,0,0,1,4.26.08.62.62,0,0,1,.17.85.59.59,0,0,1-.83.15,2.92,2.92,0,0,0-3,0,7.91,7.91,0,0,0-2.48,2.91A.52.52,0,0,1,144.17,357.61Z"/><path class="cls-8" d="M148.55,360.6a.56.56,0,0,1-.47,0,.63.63,0,0,1-.27-.83,9.12,9.12,0,0,1,2.95-3.42,4.12,4.12,0,0,1,4.27.08.62.62,0,0,1,.16.85.58.58,0,0,1-.83.15,2.93,2.93,0,0,0-3,0,8,8,0,0,0-2.47,2.91A.56.56,0,0,1,148.55,360.6Z"/><path class="cls-13" d="M122.21,213.09l-7.13,59a196.41,196.41,0,0,0-12.49,19.78c-5.12,9.32-18.76,33.51-18.76,33.51l8.25,6.28,45.17-46.81,12-72.34Z"/><path class="cls-9" d="M94.11,331.52a9.06,9.06,0,0,1-3.74,4.19l-9.58-8.09a14.74,14.74,0,0,1,3.27-4.43Z"/><path class="cls-9" d="M85.73,215.53S98.45,246.81,115,271.19c0,0,2.47,23.74,6.69,36.37,1.85,5.53,5.43,31.75,5.43,31.75l12.54-.57-3.23-72.88-13.27-52.78Z"/><path class="cls-10" d="M140.81,338.31a10.54,10.54,0,0,1,0,6.5l-14.52.41a16.85,16.85,0,0,1-.6-6.35Z"/><path class="cls-5" d="M144.15,102.89c1.89,2.35,5.68,26.39,6.28,50.79,0,.57,0,1.13,0,1.69.06,2.58.12,5.18.17,7.77s.1,5.12.14,7.65c.07,4.16.13,8.24.18,12.18,0,.45,0,.89,0,1.33.05,3.84.09,7.52.11,11,0,.45,0,.89,0,1.34,0,5.15.07,9.72.07,13.39h0v1.48c0,2.57,0,4.6,0,6A127.62,127.62,0,0,1,132.92,221l-.48.06-.81.09-.21,0c-1,.12-2.1.22-3.15.31a122.19,122.19,0,0,1-15.66.28l-1.38-.08L110,221.6l-.56,0-1-.08a126.78,126.78,0,0,1-23-4c0-3-.08-9.17-.09-17.11V199c0-8.76,0-19.51.13-30.57l0-2.63q0-1.51,0-3.06c0-.17,0-.34,0-.52s0-.47,0-.72c0-.48,0-1,0-1.44,0-.7,0-1.4,0-2.09,0-.53,0-1.06,0-1.59,0-1.06,0-2.11,0-3.16.37-22,1.11-42.16,2.52-47.3a3.58,3.58,0,0,1,.41-1,7.78,7.78,0,0,1,.54-.7,11.39,11.39,0,0,1,.92-.92c2.35-2.17,6.43-4.68,10.57-7.07l1.45-.83c.07,0,11.24-3.81,11.31-3.85l11.69.82S141.37,99.42,144.15,102.89Z"/><path class="cls-3" d="M97,134.54a.61.61,0,0,0-1.09-.38,60.26,60.26,0,0,0-9.21,18.27c-.43,1.37-.8,2.69-1.12,4,0,.53,0,1.06,0,1.59,0,.69,0,1.39,0,2.09,0,.48,0,1,0,1.44,0,.25,0,.49,0,.72s0,.35,0,.52a72.63,72.63,0,0,1,2.38-10,59.16,59.16,0,0,1,9-17.86.59.59,0,0,0,.13-.36Z"/><path class="cls-3" d="M99.37,198.3h0c12.62-.06,23.39-5.8,30.2-10.61a69.9,69.9,0,0,0,11.89-10.52.6.6,0,0,0-.08-.85.59.59,0,0,0-.85.07,68.35,68.35,0,0,1-11.68,10.33c-6.67,4.7-17.2,10.31-29.49,10.37a.61.61,0,0,0,0,1.21Z"/><path class="cls-3" d="M112.53,202.59c11,0,21.87-6.24,22.37-6.53a.61.61,0,0,0-.61-1.05c-.13.07-13,7.41-24.37,6.23a.61.61,0,1,0-.13,1.21C110.7,202.54,111.61,202.59,112.53,202.59Z"/><path class="cls-3" d="M109.39,111.56c10.55-2.93,19.41-11.86,19.81-12.27a.6.6,0,1,0-.86-.85c-.11.1-10.53,10.61-21.83,12.52a.6.6,0,0,0,.21,1.19A27.05,27.05,0,0,0,109.39,111.56Z"/><path class="cls-9" d="M100.56,62.29c0,10.67,6.57,18,17.24,18s18.1-7.91,18.1-18.58S129.59,43,118.92,43C106.12,43,100.56,51.62,100.56,62.29Z"/><path class="cls-9" d="M100.8,65.12s-3.73-5.64-1.76-10c2-4.5,1-3.52,1.52-6.9s3-4.77,5.91-5.25.93-3.88,5-5.1,7.36,3,10,1.13,9.08-2.85,10.9,0,3.42,2.84,5.35,2.74c2.33-.11,5.45,3.56,3.34,6.94s-5.65,2-5.16,4.36,3.49,6.42-.53,11.63C134.16,66.27,100.8,65.12,100.8,65.12Z"/><path class="cls-14" d="M103,66.89s-3-4-5.16-.69.91,12.93,6.3,10.57Z"/><path class="cls-15" d="M102.92,73.79a.46.46,0,0,1-.44-.34,7.06,7.06,0,0,0-4-4.2.46.46,0,0,1,.33-.85,7.85,7.85,0,0,1,4.51,4.81.47.47,0,0,1-.32.56Z"/><path class="cls-15" d="M99.8,72.29a.46.46,0,0,1-.25-.08.45.45,0,0,1-.13-.63,4.18,4.18,0,0,1,1.71-1.38.45.45,0,1,1,.37.83,3.4,3.4,0,0,0-1.32,1A.45.45,0,0,1,99.8,72.29Z"/><path class="cls-14" d="M133.51,66.89s3-4,5.17-.69-.92,12.93-6.31,10.57Z"/><path class="cls-15" d="M133.55,73.79a.46.46,0,0,0,.43-.34,7.06,7.06,0,0,1,4-4.2.46.46,0,0,0,.26-.59.45.45,0,0,0-.58-.26,7.8,7.8,0,0,0-4.51,4.81.45.45,0,0,0,.31.56Z"/><path class="cls-15" d="M136.66,72.29a.47.47,0,0,0,.39-.71,4.26,4.26,0,0,0-1.72-1.38A.45.45,0,1,0,135,71a3.4,3.4,0,0,1,1.32,1A.47.47,0,0,0,136.66,72.29Z"/><path class="cls-12" d="M125.53,85V95.12a7.07,7.07,0,0,1-4.77,2.74c-4.45.53-9.27-4.18-9.27-4.18V85.63Z"/><path class="cls-14" d="M125.53,85v4.26c-2.6,2.88-7.21,3.6-14,2.59V85.63Z"/><path class="cls-12" d="M101.38,66.71c0,.55.09,1.12.14,1.68.15,1.43.34,2.9.6,4.37l0,.14c1.29,7.08,4.18,14,10.43,16.27,14.15,5.06,19.2-7.08,21.22-14.15.23-.78.43-1.66.61-2.59a.5.5,0,0,1,0-.12c.2-1,.37-2.16.51-3.31.11-.85.2-1.71.28-2.58.21-2.12.34-4.24.43-6.12a10,10,0,0,0-6.4-9.8c-5.8-2.23-14.61-4-23,.74a10,10,0,0,0-5.09,8.53C101.16,61.72,101.19,64.13,101.38,66.71Z"/><path class="cls-9" d="M101.38,66.71c0,.55.09,1.12.14,1.68.15,1.43.34,2.9.6,4.37l0,.14c1.29,7.08,4.18,14,10.43,16.27,14.15,5.06,19.2-7.08,21.22-14.15.23-.78.43-1.66.61-2.59a.5.5,0,0,1,0-.12c.2-1,.37-2.16.51-3.31.11-.85.2-1.71.28-2.58L133.1,67c-.6,3.2-1.51,7.87-2.7,10-1.85-4.53-12.17-.79-12.17-.79s-9.2-3.26-12.31,0a86.2,86.2,0,0,1-2.8-9.23ZM117.94,77.9c7.42-1,9.26.88,9.61,3.08a12.78,12.78,0,0,1-6.32,3.8c-2.55.58-7.71.53-11.48-2.44C109.37,80.63,108.94,75.64,117.94,77.9Z"/><path class="cls-9" d="M113.42,67.45c0,1-.53,1.86-1.18,1.86s-1.18-.83-1.18-1.86.53-1.85,1.18-1.85S113.42,66.43,113.42,67.45Z"/><path class="cls-9" d="M127.11,67.45c0,1-.53,1.86-1.18,1.86s-1.18-.83-1.18-1.86.53-1.85,1.18-1.85S127.11,66.43,127.11,67.45Z"/><path class="cls-9" d="M129.27,61.08s-3.72-1.47-6.59-.23l.29,1.6s4.2-.36,6.32.5A2.79,2.79,0,0,0,129.27,61.08Z"/><path class="cls-9" d="M107.58,61.08s3.72-1.47,6.59-.23l-.29,1.6s-4.2-.36-6.32.5A2.79,2.79,0,0,1,107.58,61.08Z"/><path class="cls-14" d="M118.69,75.5a4.77,4.77,0,0,1-1.68-.15.46.46,0,0,1-.32-.56.47.47,0,0,1,.56-.32,2.7,2.7,0,0,0,1.84,0,.48.48,0,0,0,.17-.45,69.88,69.88,0,0,0-1.12-6.9.47.47,0,0,1,.35-.54.46.46,0,0,1,.54.36A65.87,65.87,0,0,1,120.17,74a1.4,1.4,0,0,1-.52,1.18A2,2,0,0,1,118.69,75.5Z"/><path class="cls-8" d="M112.46,78.23c.37,1.88,1.61,5.33,5.78,5.33s5.36-3.15,5.76-5.33Z"/><path class="cls-9" d="M135.17,67H133.1A14.87,14.87,0,0,0,132,60.71c-1.41-3.78,1.6-5.46-.83-7.35s-8.49-1.09-12.69-1.23-11-.07-12.69.31-.75,3.13-.15,5.26-2,4.48-2.47,6.68a9.64,9.64,0,0,0,0,2.59H101.4c-.2-2.68-.24-5.18-.2-7.2a10,10,0,0,1,5.09-8.53c8.35-4.74,17.16-3,23-.74a10,10,0,0,1,6.4,9.8C135.55,62.35,135.4,64.67,135.17,67Z"/><rect class="cls-3" x="93.19" y="105.91" width="115.96" height="80.1" transform="translate(-57.64 169.54) rotate(-50.44)"/><polygon class="cls-4" points="157.21 75.76 161.17 79.03 163.87 156.45 87.33 168.43 83.37 165.16 160.04 153.3 157.21 75.76"/><polygon class="cls-4" points="145.13 155.47 147.26 213.58 145.12 216.17 143.54 214.87 141.38 155.6 145.13 155.47"/><polygon class="cls-4" points="217.6 125.64 218.97 126.77 216.63 129.59 159.17 138.48 158.59 134.76 217.6 125.64"/><polygon class="cls-3" points="83.36 165.16 160.04 153.3 157.21 75.76 83.36 165.16"/><path class="cls-12" d="M144.06,187.7h2.13a4.67,4.67,0,0,0,4.21-2.83c.38-.75.89-2.13,1.24-2.6,1-1.33,3.72-3.56,4.74-3.62s.83,1.82.11,2.65a17.26,17.26,0,0,0-2.47,3.06c-.6,1.18,5,3.56,7.25,4.11s6.26-.66,6.64,1.22-2.6,2.16-2.6,2.16.88,1.69-1.6,3.09a2.3,2.3,0,0,1-1.16,2.55,2.57,2.57,0,0,1-1.68,2.66c-1.87.55-7.68,2.24-19.08-4.68Z"/><path class="cls-3" d="M104.94,139.29c4.31,16.27,8.53,23.46,8.53,23.46a60.13,60.13,0,0,0,14.75,14.36,195.31,195.31,0,0,0,18,10.59c-1.91,2.48-3.26,7.39-2.52,8.86-23,0-43.17-21.82-43.17-21.82-16.11-28-17.16-50.88-16.9-59.2a15.9,15.9,0,0,1,2.56-8.24,8.25,8.25,0,0,1,3.1-3A16.8,16.8,0,0,1,98.57,115C101,123.08,104.94,139.29,104.94,139.29Z"/><path class="cls-12" d="M207.49,140.73s-5.12-1.81-7.47-.83,4.17,4.51,4.17,4.51-7.91-4.21-9.28-2.51,6.2,6,6.2,6-5.79-2-7-.84,4.23,4.57,4.23,4.57-4.76-1.15-5.75-.34,3.22,4.19,5.9,5.09,3.11-2.87,3.11-2.87,2.51-2.22,2.18-3.76c0,0,2.61-1.76,2.79-3.56C206.6,146.2,210.29,143,207.49,140.73Z"/></g></g></svg>