<svg xmlns="http://www.w3.org/2000/svg" width="47.125" height="27.926" viewBox="0 0 47.125 27.926">
  <g id="fare" transform="translate(-0.074 -107.574)">
    <path id="Path_3077" data-name="Path 3077" d="M166.183,179.574a6.109,6.109,0,1,0,6.109,6.109A6.109,6.109,0,0,0,166.183,179.574Zm0,10.472a4.363,4.363,0,1,1,4.363-4.363A4.363,4.363,0,0,1,166.183,190.046Zm0,0" transform="translate(-142.546 -64.146)" fill="#777676"/>
    <path id="Path_3078" data-name="Path 3078" d="M33.82,141.319h1.745v-1.745H32.947a.873.873,0,0,0-.873.873v2.618H33.82Zm0,0" transform="translate(-28.509 -28.509)" fill="#777676"/>
    <path id="Path_3079" data-name="Path 3079" d="M33.82,299.574H32.074v2.618a.872.872,0,0,0,.873.873h2.618v-1.745H33.82Zm0,0" transform="translate(-28.509 -171.056)" fill="#777676"/>
    <path id="Path_3080" data-name="Path 3080" d="M.074,108.447v26.181a.872.872,0,0,0,.873.873h45.38a.872.872,0,0,0,.873-.873V108.447a.872.872,0,0,0-.873-.873H.947a.873.873,0,0,0-.873.873Zm1.745.873H45.454v24.435H1.82Zm0,0" transform="translate(0 0)" fill="#777676"/>
    <path id="Path_3081" data-name="Path 3081" d="M71.345,145.683a5.241,5.241,0,0,1-5.236-5.236.872.872,0,0,0-.873-.873H39.056a.873.873,0,0,0-.873.873,5.241,5.241,0,0,1-5.236,5.236.873.873,0,0,0-.873.873v6.981a.872.872,0,0,0,.873.873,5.241,5.241,0,0,1,5.236,5.236.872.872,0,0,0,.873.873H65.236a.872.872,0,0,0,.873-.873,5.242,5.242,0,0,1,5.236-5.236.872.872,0,0,0,.873-.873v-6.981A.872.872,0,0,0,71.345,145.683Zm-.873,7.036a7,7,0,0,0-6.055,6.055H39.874a7,7,0,0,0-6.055-6.055v-5.344a7,7,0,0,0,6.055-6.055H64.418a7,7,0,0,0,6.055,6.055Zm0,0" transform="translate(-28.509 -28.509)" fill="#777676"/>
    <path id="Path_3082" data-name="Path 3082" d="M370.692,139.574h-2.618v1.745h1.745v1.745h1.745v-2.618A.872.872,0,0,0,370.692,139.574Zm0,0" transform="translate(-327.856 -28.509)" fill="#777676"/>
    <path id="Path_3083" data-name="Path 3083" d="M369.819,301.319h-1.745v1.745h2.618a.872.872,0,0,0,.873-.873v-2.618h-1.745Zm0,0" transform="translate(-327.856 -171.056)" fill="#777676"/>
  </g>
</svg>
