<svg id="location_point" xmlns="http://www.w3.org/2000/svg" width="17.983" height="19" viewBox="0 0 17.983 19">
  <g id="Group_291" data-name="Group 291">
    <g id="Group_290" data-name="Group 290">
      <path id="Path_3053" data-name="Path 3053" d="M66.248,234.667a2.248,2.248,0,1,0,2.248,2.248A2.25,2.25,0,0,0,66.248,234.667Zm0,3.746a1.5,1.5,0,1,1,1.5-1.5A1.5,1.5,0,0,1,66.248,238.413Z" transform="translate(-61.752 -225.803)"/>
      <path id="Path_3054" data-name="Path 3054" d="M260.5,0A4.448,4.448,0,0,0,256,4.5c0,2.834,2.909,6.043,3.907,7.061l-.242.161a.375.375,0,1,0,.416.623l.623-.416c.009-.006.014-.015.022-.022s.019-.01.027-.017c.173-.164,4.238-4.045,4.238-7.39A4.448,4.448,0,0,0,260.5,0Zm0,11.086c-.885-.9-3.746-4.022-3.746-6.59a3.746,3.746,0,0,1,7.493,0C264.242,7.064,261.381,10.183,260.5,11.086Z" transform="translate(-247.009)"/>
      <path id="Path_3055" data-name="Path 3055" d="M322.248,64a2.248,2.248,0,1,0,2.248,2.248A2.25,2.25,0,0,0,322.248,64Zm0,3.746a1.5,1.5,0,1,1,1.5-1.5A1.5,1.5,0,0,1,322.248,67.746Z" transform="translate(-308.761 -61.752)"/>
      <path id="Path_3056" data-name="Path 3056" d="M7.124,180.078l-.423.282c1.114-1.448,2.29-3.4,2.29-5.2a4.448,4.448,0,0,0-4.5-4.5,4.448,4.448,0,0,0-4.5,4.5c0,3.346,4.065,7.227,4.238,7.39a.357.357,0,0,0,.46.035s0,.006.005,0l.623-.416a.374.374,0,0,0,.16-.376c.129-.14.273-.3.423-.474,0,0,0,.006,0,.009a.375.375,0,0,0,.519.1L7.54,180.7a.375.375,0,1,0-.416-.623ZM4.5,181.753c-.885-.9-3.746-4.022-3.746-6.59A3.707,3.707,0,0,1,4.5,171.416a3.707,3.707,0,0,1,3.746,3.746C8.242,177.731,5.381,180.85,4.5,181.753Z" transform="translate(0 -163.656)"/>
      <path id="Path_3057" data-name="Path 3057" d="M230.853,394.889l-1.106.738a.375.375,0,0,0,.416.623l1.106-.738a.375.375,0,0,0-.416-.623Z" transform="translate(-221.516 -379.941)"/>
      <path id="Path_3058" data-name="Path 3058" d="M293.853,352.895l-1.106.738a.375.375,0,1,0,.416.623l1.106-.738a.375.375,0,0,0-.416-.623Z" transform="translate(-282.304 -339.676)"/>
    </g>
  </g>
</svg>
