<svg xmlns="http://www.w3.org/2000/svg" width="104" height="104" viewBox="0 0 104 104"><defs><style>.a{fill:#0180ff;}</style></defs><path class="a" d="M95.333,0H8.667A8.677,8.677,0,0,0,0,8.667V95.333A8.677,8.677,0,0,0,8.667,104H95.333A8.677,8.677,0,0,0,104,95.333V8.667A8.677,8.677,0,0,0,95.333,0ZM3.467,8.667a5.2,5.2,0,0,1,5.2-5.2H95.333a5.2,5.2,0,0,1,5.2,5.2v5.2H3.467Zm91.867,91.867H8.667a5.2,5.2,0,0,1-5.2-5.2v-78h97.067v78A5.2,5.2,0,0,1,95.333,100.533Zm-88.4-93.6H10.4V10.4H6.933Zm6.933,0h3.467V10.4H13.867Zm6.933,0h3.467V10.4H20.8ZM40.439,56.212l.014.017c.016.014.033.025.047.036a17.314,17.314,0,0,0,3.683,2.517c.03.017.058.038.09.053.086.044.184.08.273.122.346.173.693.328,1.059.471l.113.048c.283.109.569.212.877.314.174.058.347.113.532.174.13.04.241.08.383.119l.674.154c.153.035.306.074.461.1l.114.026c.225.041.438.06.661.093.308.046.615.1.928.13.557.053,1.106.083,1.652.083s1.087-.028,1.647-.083c.366-.035.723-.1,1.082-.152.19-.031.369-.046.566-.082l.084-.019c.149-.03.293-.068.438-.1l.823-.19c.087-.026.174-.063.259-.089.371-.111.733-.24,1.093-.374.106-.038.21-.068.317-.107l.1-.045c.365-.146.719-.309,1.07-.476.089-.044.174-.074.265-.12.028-.014.054-.035.084-.048A17.422,17.422,0,0,0,63.5,56.276c.014-.014.031-.024.047-.038l.014-.017a17.334,17.334,0,1,0-27.437-5.954H31.2v3.467h6.966a17.567,17.567,0,0,0,2.272,2.479Zm2.895-2.08v-.4a8.668,8.668,0,0,1,3.5-6.953,8.491,8.491,0,0,0,10.337,0,8.668,8.668,0,0,1,3.5,6.953v.39a14.97,14.97,0,0,1-2.446,1.586l-.173.085c-.311.151-.627.293-.93.416s-.562.218-.85.311l-.2.068c-.372.114-.751.208-1.134.291l-.215.049c-.2.04-.405.06-.607.091-.267.041-.537.086-.8.113-.361.033-.728.049-1.1.056-.074,0-.149.01-.223.01-.449,0-.891-.026-1.33-.068-.2-.019-.394-.055-.589-.081-.255-.036-.511-.068-.763-.118L49,56.864c-.3-.066-.6-.144-.89-.229s-.62-.2-.915-.31c-.1-.038-.2-.071-.3-.109-.314-.129-.62-.266-.916-.41-.063-.03-.129-.06-.194-.093a15.132,15.132,0,0,1-2.456-1.589ZM52,45.067a5.2,5.2,0,1,1,5.2-5.2A5.2,5.2,0,0,1,52,45.067Zm0-15.6A13.841,13.841,0,0,1,63.735,50.688,12.118,12.118,0,0,0,59.466,44.2a8.556,8.556,0,0,0,1.2-4.333,8.667,8.667,0,1,0-17.333,0,8.556,8.556,0,0,0,1.2,4.333,12.122,12.122,0,0,0-4.269,6.5A13.84,13.84,0,0,1,52,29.467ZM34.667,74.533h3.467V78H34.667Zm6.933,0h3.467V78H41.6Zm6.933,0H52V78H48.533Zm6.933,0h3.467V78H55.467ZM84.933,60.667H67.6a5.2,5.2,0,0,0-5.2,5.2V67.6H31.2a3.467,3.467,0,0,0-3.467,3.467v3.467H24.267V78h3.467v3.467A3.467,3.467,0,0,0,31.2,84.933H62.4a5.2,5.2,0,0,0,5.2,5.2H84.933a5.2,5.2,0,0,0,5.2-5.2V65.867A5.2,5.2,0,0,0,84.933,60.667ZM31.2,81.467v-10.4H62.4v10.4Zm55.467,3.467a1.733,1.733,0,0,1-1.733,1.733H67.6a1.733,1.733,0,0,1-1.733-1.733V65.867A1.733,1.733,0,0,1,67.6,64.133H84.933a1.733,1.733,0,0,1,1.733,1.733ZM17.333,50.267H20.8v3.467H19.067v20.8H20.8V78H17.333A1.733,1.733,0,0,1,15.6,76.267V52A1.733,1.733,0,0,1,17.333,50.267Zm10.4,3.467H24.267V50.267h3.467Zm0,0"/></svg>