<svg id="patient" xmlns="http://www.w3.org/2000/svg" width="104" height="88.003" viewBox="0 0 104 88.003">
  <path id="XMLID_1480_" d="M35.7,94h0a4.972,4.972,0,0,0-4.973,4.972A10.294,10.294,0,0,1,28.789,105c.015-.205.025-.412.025-.621a8.476,8.476,0,0,0-16.953,0c0,.208.01.414.025.619a10.326,10.326,0,0,1-1.935-6.026,4.972,4.972,0,0,0-9.945,0,20.291,20.291,0,0,0,11.435,18.279v14.835c0,.029,0,.058,0,.087s-.006.074-.006.111V161.8a5.789,5.789,0,0,0,9.825,4.153,5.789,5.789,0,0,0,9.825-4.153V132.287c0-.033,0-.066,0-.1s0-.066,0-.1V116.222a20.432,20.432,0,0,0,3.617-2.878,20.194,20.194,0,0,0,5.961-14.37A4.979,4.979,0,0,0,35.7,94ZM20.338,99.426a4.955,4.955,0,1,1-4.955,4.955A4.961,4.961,0,0,1,20.338,99.426Zm4.96,64.645a2.274,2.274,0,0,1-2.272-2.272V142.3a1.761,1.761,0,0,0-3.521,0v19.5a2.272,2.272,0,0,1-4.544,0v-27.95H27.569V161.8A2.274,2.274,0,0,1,25.3,164.071Zm6.92-53.216a16.907,16.907,0,0,1-3.743,2.824,1.761,1.761,0,0,0-.905,1.539v15.111H14.963V116.118a1.761,1.761,0,0,0-1.082-1.625A16.786,16.786,0,0,1,3.528,98.975a1.451,1.451,0,0,1,2.9,0,13.907,13.907,0,0,0,27.814,0,1.451,1.451,0,0,1,2.9,0A16.7,16.7,0,0,1,32.218,110.855Z" transform="translate(-0.007 -79.589)" fill="#1bdfbe"/>
  <path id="XMLID_1491_" d="M352.081,333.932a2.084,2.084,0,1,0,1.473.61A2.1,2.1,0,0,0,352.081,333.932Z" transform="translate(-278.978 -266.172)" fill="#0180ff"/>
  <path id="XMLID_1495_" d="M251.737,290.542a2.082,2.082,0,1,0,1.473-.61A2.1,2.1,0,0,0,251.737,290.542Z" transform="translate(-200.17 -231.1)" fill="#0180ff"/>
  <path id="XMLID_1496_" d="M319.823,292.017a2.084,2.084,0,0,0-2.083-2.083H293.207a2.083,2.083,0,1,0,0,4.167h24.532A2.083,2.083,0,0,0,319.823,292.017Z" transform="translate(-232.549 -231.101)" fill="#0180ff"/>
  <path id="XMLID_1497_" d="M452.424,293.489a2.082,2.082,0,1,0-1.473.61A2.1,2.1,0,0,0,452.424,293.489Z" transform="translate(-358.02 -231.1)" fill="#0180ff"/>
  <path id="XMLID_1508_" d="M266.7,177.232l.834-1.529h1.717a2.083,2.083,0,1,0,0-4.167H266.3a2.084,2.084,0,0,0-1.829,1.086l-.06.109-1.988-7.644a9.562,9.562,0,0,0-9.253-7.154H226.162a9.564,9.564,0,0,0-9.249,7.143l-2,7.641-.052-.1a2.084,2.084,0,0,0-1.829-1.086h-2.954a2.083,2.083,0,1,0,0,4.167H211.8l.834,1.529A8.585,8.585,0,0,0,208,184.846V193.4a5.373,5.373,0,0,0,5.367,5.367h1.855v3.54a4.8,4.8,0,0,0,4.794,4.794h2.3a4.8,4.8,0,0,0,4.794-4.794v-3.54h4.221a2.083,2.083,0,1,0,0-4.167H213.363a1.2,1.2,0,0,1-1.2-1.2v-8.557a4.416,4.416,0,0,1,4.411-4.411h46.182a4.416,4.416,0,0,1,4.411,4.411V193.4a1.2,1.2,0,0,1-1.2,1.2H248a2.083,2.083,0,1,0,0,4.167h4.2v3.54A4.8,4.8,0,0,0,257,207.1h2.3a4.8,4.8,0,0,0,4.794-4.794v-3.54h1.873a5.373,5.373,0,0,0,5.367-5.367v-8.557A8.585,8.585,0,0,0,266.7,177.232Zm-43.757,21.538v3.54a.628.628,0,0,1-.627.627h-2.3a.628.628,0,0,1-.627-.627v-3.54Zm-2-32.64a5.4,5.4,0,0,1,5.218-4.029h27.006a5.394,5.394,0,0,1,5.22,4.036l2.635,10.132H218.293Zm38.984,36.18a.628.628,0,0,1-.627.627H257a.628.628,0,0,1-.627-.627v-3.54h3.558Z" transform="translate(-167.334 -126.557)" fill="#0180ff"/>
  <path id="XMLID_1511_" d="M411.5,28.472a2.083,2.083,0,0,0,3.89-1.495l-9.851-25.64a2.083,2.083,0,1,0-3.89,1.495Z" transform="translate(-320.526 0)" fill="#0180ff"/>
  <path id="XMLID_1512_" d="M252.535,29.67a2.081,2.081,0,0,0,2.692-1.2l9.851-25.64a2.083,2.083,0,1,0-3.89-1.495l-9.851,25.64A2.084,2.084,0,0,0,252.535,29.67Z" transform="translate(-200.372 -0.001)" fill="#0180ff"/>
  <path id="XMLID_1520_" d="M352.035,101.586a2.084,2.084,0,0,0,2.083-2.083V94.085a2.083,2.083,0,1,0-4.167,0V99.5A2.083,2.083,0,0,0,352.035,101.586Z" transform="translate(-278.942 -73.361)" fill="#0180ff"/>
  <path id="XMLID_1524_" d="M352.035,10.836a2.084,2.084,0,0,0,2.083-2.083V2.085a2.083,2.083,0,1,0-4.167,0V8.753A2.083,2.083,0,0,0,352.035,10.836Z" transform="translate(-278.942 -0.002)" fill="#0180ff"/>
</svg>
