<svg xmlns="http://www.w3.org/2000/svg" width="357.318" height="470" viewBox="0 0 357.318 470">
  <g id="pattern_bg" transform="translate(-0.341)" opacity="0.46">
    <g id="Group_126" data-name="Group 126" opacity="0.06">
      <path id="Path_743" data-name="Path 743" d="M72.892,421.63a13.771,13.771,0,0,1,9.736,13.212A13.948,13.948,0,0,1,68.72,448.75H17.955a13.945,13.945,0,0,1-1.391-27.816,13.635,13.635,0,0,1,20.63-7.881C47.162,397.522,71.27,403.086,72.892,421.63Z" fill="#e6e6e6" fill-rule="evenodd"/>
      <path id="Path_744" data-name="Path 744" d="M69.186,417.182a13.771,13.771,0,0,1,9.736,13.212A13.948,13.948,0,0,1,65.013,444.3H14.249a13.945,13.945,0,0,1-1.391-27.816,13.635,13.635,0,0,1,20.63-7.881C43.456,393.075,67.563,398.638,69.186,417.182Z" fill="#fff" fill-rule="evenodd"/>
    </g>
    <g id="Group_127" data-name="Group 127" opacity="0.07">
      <circle id="Ellipse_53" data-name="Ellipse 53" cx="3.707" cy="3.707" r="3.707" transform="translate(92.265 149.747)" fill="#fff"/>
      <circle id="Ellipse_54" data-name="Ellipse 54" cx="3.336" cy="3.336" r="3.336" transform="translate(144.899 186.814)" fill="#fff"/>
      <circle id="Ellipse_55" data-name="Ellipse 55" cx="3.336" cy="3.336" r="3.336" transform="translate(144.899 409.211)" fill="#fff"/>
      <circle id="Ellipse_56" data-name="Ellipse 56" cx="3.336" cy="3.336" r="3.336" transform="translate(265.735 297.271)" fill="#fff"/>
      <circle id="Ellipse_57" data-name="Ellipse 57" cx="3.336" cy="3.336" r="3.336" transform="translate(190.861 459.621)" fill="#fff"/>
      <circle id="Ellipse_58" data-name="Ellipse 58" cx="3.336" cy="3.336" r="3.336" transform="translate(265.735 234.259)" fill="#fff"/>
      <circle id="Ellipse_59" data-name="Ellipse 59" cx="3.336" cy="3.336" r="3.336" transform="translate(265.735 456.656)" fill="#fff"/>
      <circle id="Ellipse_60" data-name="Ellipse 60" cx="3.336" cy="3.336" r="3.336" transform="translate(85.593 290.599)" fill="#fff"/>
      <circle id="Ellipse_61" data-name="Ellipse 61" cx="3.336" cy="3.336" r="3.336" transform="translate(92.265 463.328)" fill="#fff"/>
      <circle id="Ellipse_62" data-name="Ellipse 62" cx="3.336" cy="3.336" r="3.336" transform="translate(219.773 180.142)" fill="#fff"/>
      <circle id="Ellipse_63" data-name="Ellipse 63" cx="3.336" cy="3.336" r="3.336" transform="translate(219.773 402.539)" fill="#fff"/>
      <circle id="Ellipse_64" data-name="Ellipse 64" cx="3.336" cy="3.336" r="3.336" transform="translate(262.028 49.669)" fill="#fff"/>
      <circle id="Ellipse_65" data-name="Ellipse 65" cx="3.336" cy="3.336" r="3.336" transform="translate(144.899 94.89)" fill="#fff"/>
    </g>
    <circle id="Ellipse_66" data-name="Ellipse 66" cx="3.336" cy="3.336" r="3.336" transform="translate(350.987 288.375)" fill="#c4c4c4"/>
    <g id="Group_128" data-name="Group 128" opacity="0.1">
      <path id="Path_745" data-name="Path 745" d="M50.963,197.882c-1.025,2.8-4.316,26.477-8.157,35.957,1.028-.464,8.8-5.08,10.948-6.655,8.587-5.688,16.6-10.033,15.564-19.91C66.688,193.8,51.944,193.922,50.963,197.882Z" fill="#f3ced0"/>
      <path id="Path_746" data-name="Path 746" d="M39.4,195.829c1.025,2.8,5.655,28.082,3.509,38.064-1.028-.464-8.8-7.889-11.27-9.982-7.031-6.87-11.592-12.237-10.593-18.69C23.68,191.751,38.424,191.87,39.4,195.829Z" fill="#f3ced0"/>
      <path id="Path_747" data-name="Path 747" d="M48.025,198.488c-1.025,2.8-1.378,25.818-5.219,35.3,1.028-.464,7.514-5.67,9.66-7.245,9.5-7.674,13.33-11.052,12.29-20.93C62.126,192.139,49.006,194.529,48.025,198.488Z" fill="#f1d9de"/>
      <path id="Path_748" data-name="Path 748" d="M42.35,196.843c1.025,2.8,2.656,28.409.51,37.05-1.028-.464-9.66-10.734-11.056-12.29-4.454-5.421-7.627-10.251-6.184-17.639C28.249,190.494,41.369,192.883,42.35,196.843Z" fill="#f1d9de"/>
      <path id="Path_749" data-name="Path 749" d="M45.972,199.76c-.215,2.962-2.2,23.954-3.166,34.079.59-.7,1.771-2.093,6.333-6.923,8.909-9.66,11.27-15.939,9.016-25.278C54.774,190.529,45.972,195.681,45.972,199.76Z" fill="#f9eff7"/>
      <path id="Path_750" data-name="Path 750" d="M46.079,200.887c-.029,2.97-1.02,23.238-3.274,33.006-.531-.744-5.152-8.694-6.655-10.841-5.474-10.2-6.179-13.58-3.167-22.7C37.265,189.556,46.131,195.574,46.079,200.887Z" fill="#efe5ed"/>
    </g>
    <g id="Group_129" data-name="Group 129" opacity="0.06">
      <path id="Path_751" data-name="Path 751" d="M309.686,420.2c-1.025,2.8-4.316,26.478-8.158,35.958,1.028-.464,8.8-5.081,10.948-6.655,8.587-5.689,16.6-10.033,15.564-19.911C325.411,416.121,310.666,416.24,309.686,420.2Z" fill="#f3ced0"/>
      <path id="Path_752" data-name="Path 752" d="M298.127,418.147c1.025,2.8,5.655,28.081,3.509,38.064-1.029-.464-8.8-7.889-11.271-9.983-7.03-6.869-11.592-12.236-10.592-18.689C282.4,414.068,297.147,414.188,298.127,418.147Z" fill="#f3ced0"/>
      <path id="Path_753" data-name="Path 753" d="M306.748,420.806c-1.025,2.8-1.378,25.817-5.22,35.3,1.028-.464,7.514-5.671,9.66-7.245,9.5-7.674,13.331-11.052,12.29-20.93C320.848,414.457,307.728,416.847,306.748,420.806Z" fill="#f1d9de"/>
      <path id="Path_754" data-name="Path 754" d="M301.072,419.161c1.025,2.8,2.657,28.409.51,37.05-1.028-.465-9.66-10.734-11.056-12.29-4.454-5.421-7.626-10.251-6.184-17.639C286.972,412.812,300.092,415.2,301.072,419.161Z" fill="#f1d9de"/>
      <path id="Path_755" data-name="Path 755" d="M304.7,422.078c-.215,2.962-2.2,23.954-3.167,34.079.591-.7,1.771-2.093,6.333-6.923,8.909-9.66,11.27-15.94,9.016-25.278C313.5,412.847,304.7,418,304.7,422.078Z" fill="#f9eff7"/>
      <path id="Path_756" data-name="Path 756" d="M304.8,423.2c-.029,2.97-1.02,23.238-3.274,33.006-.531-.744-5.152-8.7-6.655-10.841-5.474-10.2-6.178-13.58-3.166-22.7C295.988,411.874,304.854,417.892,304.8,423.2Z" fill="#efe5ed"/>
    </g>
    <rect id="Rectangle_4615" data-name="Rectangle 4615" width="1.483" height="165.315" transform="translate(195.309)" opacity="0.05"/>
    <g id="Group_130" data-name="Group 130" opacity="0.1">
      <path id="Path_757" data-name="Path 757" d="M110.7,53.933a13.772,13.772,0,0,1,9.735,13.213,13.949,13.949,0,0,1-13.908,13.908H55.763a13.945,13.945,0,0,1-1.391-27.816A13.635,13.635,0,0,1,75,45.356C84.97,29.825,109.077,35.389,110.7,53.933Z" fill="#e6e6e6" fill-rule="evenodd"/>
      <path id="Path_758" data-name="Path 758" d="M106.993,49.485A13.773,13.773,0,0,1,116.729,62.7a13.949,13.949,0,0,1-13.908,13.908H52.056a13.945,13.945,0,0,1-1.391-27.816A13.635,13.635,0,0,1,71.3,40.908C81.263,25.377,105.37,30.941,106.993,49.485Z" fill="#fff" fill-rule="evenodd"/>
    </g>
    <g id="Group_131" data-name="Group 131" opacity="0.1">
      <path id="Path_759" data-name="Path 759" d="M244.88,113.98a13.772,13.772,0,0,1,9.735,13.213A13.949,13.949,0,0,1,240.707,141.1H189.943a13.945,13.945,0,0,1-1.391-27.816,13.635,13.635,0,0,1,20.63-7.882C219.15,89.873,243.257,95.436,244.88,113.98Z" fill="#e6e6e6" fill-rule="evenodd"/>
      <path id="Path_760" data-name="Path 760" d="M241.173,109.532a13.773,13.773,0,0,1,9.736,13.213A13.95,13.95,0,0,1,237,136.653H186.236a13.945,13.945,0,0,1-1.391-27.816,13.636,13.636,0,0,1,20.631-7.882C215.443,85.425,239.55,90.988,241.173,109.532Z" fill="#fff" fill-rule="evenodd"/>
    </g>
    <g id="Group_132" data-name="Group 132" opacity="0.1">
      <path id="Path_761" data-name="Path 761" d="M329.391,184.406a13.771,13.771,0,0,1,9.735,13.212,13.948,13.948,0,0,1-13.908,13.908H274.454a13.945,13.945,0,0,1-1.391-27.816,13.635,13.635,0,0,1,20.63-7.881C303.661,160.3,327.768,165.862,329.391,184.406Z" fill="#e6e6e6" fill-rule="evenodd"/>
      <path id="Path_762" data-name="Path 762" d="M325.684,179.958a13.772,13.772,0,0,1,9.736,13.212,13.95,13.95,0,0,1-13.908,13.909H270.747a13.945,13.945,0,0,1-1.391-27.817,13.636,13.636,0,0,1,20.631-7.881C299.954,155.851,324.061,161.414,325.684,179.958Z" fill="#fff" fill-rule="evenodd"/>
    </g>
    <g id="Group_133" data-name="Group 133" opacity="0.05">
      <path id="Path_763" data-name="Path 763" d="M94.489,123.8H87.076a.741.741,0,1,1,0-1.482h7.413a.741.741,0,1,1,0,1.482Z"/>
      <path id="Path_764" data-name="Path 764" d="M90.782,123.8a.742.742,0,0,1-.741-.742v-5.188a.741.741,0,1,1,1.483,0v5.188A.742.742,0,0,1,90.782,123.8Z"/>
      <path id="Path_765" data-name="Path 765" d="M90.782,118.612a7.422,7.422,0,0,1-7.413-7.413.741.741,0,1,1,1.483,0,5.931,5.931,0,0,0,11.861,0,.741.741,0,1,1,1.483,0A7.422,7.422,0,0,1,90.782,118.612Z"/>
      <path id="Path_766" data-name="Path 766" d="M91.524,107.492a.741.741,0,0,1,0-1.483H95.23v-2.224H91.524a.741.741,0,1,1,0-1.482H95.23v-2.224H91.524a.741.741,0,0,1,0-1.483H95.23a4.448,4.448,0,0,0-8.9,0v12.6a4.448,4.448,0,1,0,8.9,0v-3.707Z"/>
      <path id="Path_767" data-name="Path 767" d="M64.836,135.662a.741.741,0,1,1,0-1.482.741.741,0,0,0,0-1.483.741.741,0,1,1,0-1.482,2.224,2.224,0,1,1,0,4.447Z"/>
      <path id="Path_768" data-name="Path 768" d="M64.836,138.628a.742.742,0,0,1,0-1.483,3.707,3.707,0,1,0,0-7.413.742.742,0,0,1,0-1.483,5.19,5.19,0,0,1,0,10.379Z"/>
      <path id="Path_769" data-name="Path 769" d="M64.836,141.593a.742.742,0,0,1,0-1.483,6.672,6.672,0,1,0,0-13.343.742.742,0,0,1,0-1.483,8.155,8.155,0,1,1,0,16.309Z"/>
      <path id="Path_770" data-name="Path 770" d="M61.871,123.8a.741.741,0,0,1-.741-.741V108.975a.741.741,0,1,1,1.483,0V123.06A.741.741,0,0,1,61.871,123.8Z"/>
      <path id="Path_771" data-name="Path 771" d="M81.145,109.716H61.871a.742.742,0,0,1,0-1.483H81.145a.742.742,0,0,1,0,1.483Z"/>
      <path id="Path_772" data-name="Path 772" d="M90.782,134.18a.741.741,0,0,1-.741-.742v-7.413a.741.741,0,0,1,1.483,0v7.413A.741.741,0,0,1,90.782,134.18Z"/>
      <path id="Path_773" data-name="Path 773" d="M90.782,134.18H75.215a.741.741,0,0,1,0-1.483H90.782a.741.741,0,0,1,0,1.483Z"/>
      <path id="Path_774" data-name="Path 774" d="M78.921,111.94a.741.741,0,0,1-.524-1.265l2.224-2.224a.741.741,0,1,1,1.048,1.048l-2.224,2.224A.742.742,0,0,1,78.921,111.94Z"/>
      <path id="Path_775" data-name="Path 775" d="M81.145,109.716a.741.741,0,0,1-.524-.217L78.4,107.275a.741.741,0,1,1,1.048-1.048l2.224,2.224a.741.741,0,0,1-.524,1.265Z"/>
      <path id="Path_776" data-name="Path 776" d="M75.215,134.18a.741.741,0,0,1-.524-1.266l2.224-2.224a.741.741,0,1,1,1.048,1.049l-2.224,2.224A.742.742,0,0,1,75.215,134.18Z"/>
      <path id="Path_777" data-name="Path 777" d="M77.438,136.4a.741.741,0,0,1-.524-.217l-2.224-2.224a.742.742,0,1,1,1.048-1.049l2.224,2.224a.742.742,0,0,1-.524,1.266Z"/>
      <path id="Path_778" data-name="Path 778" d="M52.975,128.249h-.741a1.484,1.484,0,0,0-1.483,1.483v7.413a1.484,1.484,0,0,0,1.483,1.483h.741Z"/>
      <path id="Path_779" data-name="Path 779" d="M62.586,125.9a.7.7,0,0,0-.027-.149s0,0,0,0a.724.724,0,0,0-.122-.185c-.014-.017-.022-.04-.038-.056a.738.738,0,0,0-.2-.134c-.013-.007-.023-.019-.037-.025a.786.786,0,0,0-.11-.024.747.747,0,0,0-.174-.035h-.007a4.97,4.97,0,0,1-.275.053l-3.707,1.483-3.432,1.372v10.494l2.689,1.076,4.448,1.779a.763.763,0,0,0,.276.052.718.718,0,0,0,.259-.053.6.6,0,0,0,.07-.033.717.717,0,0,0,.154-.1.537.537,0,0,0,.057-.052.728.728,0,0,0,.124-.183c.006-.012.015-.022.02-.034s0,0,0-.007a.737.737,0,0,0,.028-.149.721.721,0,0,0,.025-.126V126.025A.666.666,0,0,0,62.586,125.9Z"/>
    </g>
    <g id="Group_134" data-name="Group 134" opacity="0.05">
      <path id="Path_780" data-name="Path 780" d="M280.5,49.109a.73.73,0,0,1,1.035-.091l.061.061a.721.721,0,0,1,.091,1,7.956,7.956,0,0,0-1.826,5.052,7.79,7.79,0,0,0,1.826,5.052.758.758,0,0,1-.091,1.035l-.061.061a.73.73,0,0,1-1.035-.091,9.359,9.359,0,0,1-2.16-6.026A9.548,9.548,0,0,1,280.5,49.109Z"/>
      <path id="Path_781" data-name="Path 781" d="M282.537,50.874a.728.728,0,0,1,1.035-.091l.031.03a.719.719,0,0,1,.091,1,5.314,5.314,0,0,0,0,6.7.719.719,0,0,1-.091,1l-.031.03a.728.728,0,0,1-1.035-.091,6.764,6.764,0,0,1-1.521-4.291A6.43,6.43,0,0,1,282.537,50.874Z"/>
      <path id="Path_782" data-name="Path 782" d="M284.546,52.609a.7.7,0,0,1,1.035-.091.719.719,0,0,1,.091,1,2.61,2.61,0,0,0-.548,1.643,2.8,2.8,0,0,0,.548,1.643.722.722,0,0,1-.091,1,.7.7,0,0,1-1.035-.091,4.142,4.142,0,0,1,0-5.113Z"/>
      <path id="Path_783" data-name="Path 783" d="M289.415,47.283a1.717,1.717,0,0,0,.213-.67,8.827,8.827,0,0,1,17.621.761,10.155,10.155,0,0,1-3.56,7.578,1.174,1.174,0,0,0-.427.882v5.052a.762.762,0,0,1-.7.761l-7.608.669a.777.777,0,0,1-.852-.761V58a.416.416,0,0,0-.426-.426h-2.648a1.494,1.494,0,0,1-1.491-1.491V52.518a.273.273,0,0,0-.274-.274h-1.309a.983.983,0,0,1-.821-1.522Z"/>
    </g>
    <g id="Group_135" data-name="Group 135" opacity="0.05">
      <path id="Path_784" data-name="Path 784" d="M202.068,164.645c-1.862-.225-4.467,1.339-4.467,1.339l-1.151,1.656.87.643.643.482-.765.517-1.035.7.885.527.656.393-.791.694-.857.741.688.575.643.533-.785.761-.812.778.643.642.628.626-.744.311-1,.428.694,2.1a27.222,27.222,0,0,0,5.893-2.921C206.654,172.892,207.2,165.268,202.068,164.645Z"/>
      <path id="Path_785" data-name="Path 785" d="M190.144,176.109a27.384,27.384,0,0,0,5.867,2.974l-1.159-1.879.876-.643.643-.476-.744-.465-.771-.474.611-.945.589-.917-.744-.372-.8-.4.655-.917.607-.857-.729-.23-.975-.308.845-.917.625-.682-.739-.321-.994-.429.735-1.879s-2.591-1.588-4.455-1.378C184.943,165.168,185.423,172.8,190.144,176.109Z"/>
    </g>
  </g>
</svg>
