<svg xmlns="http://www.w3.org/2000/svg" width="23.894" height="23.879" viewBox="0 0 23.894 23.879"><defs><style>.a{fill:#fff;}</style></defs><g transform="translate(0 -0.188)"><g transform="translate(0 0.188)"><path class="a" d="M23.883,19.033a1.155,1.155,0,0,1-.354,1.012l-3.364,3.339a1.893,1.893,0,0,1-.594.43,2.456,2.456,0,0,1-.721.228q-.025,0-.152.013t-.329.013a11.661,11.661,0,0,1-1.556-.164,11.815,11.815,0,0,1-2.631-.809,22.082,22.082,0,0,1-3.529-1.935,26.309,26.309,0,0,1-4.2-3.541A27.718,27.718,0,0,1,3.52,14.278a23.79,23.79,0,0,1-1.872-2.947A15.872,15.872,0,0,1,.586,8.877a13.018,13.018,0,0,1-.481-1.9A6.265,6.265,0,0,1,0,5.728Q.03,5.272.03,5.222A2.459,2.459,0,0,1,.257,4.5a1.9,1.9,0,0,1,.43-.594L4.051.542A1.114,1.114,0,0,1,4.861.188a.944.944,0,0,1,.582.19,1.759,1.759,0,0,1,.43.468L8.579,5.981a1.231,1.231,0,0,1,.126.885,1.577,1.577,0,0,1-.43.809L7.036,8.915a.422.422,0,0,0-.089.164.624.624,0,0,0-.038.19,4.567,4.567,0,0,0,.455,1.214,11.146,11.146,0,0,0,.936,1.48,16.43,16.43,0,0,0,1.8,2.011,16.755,16.755,0,0,0,2.024,1.809,11.686,11.686,0,0,0,1.48.949,3.933,3.933,0,0,0,.911.367l.316.063a.6.6,0,0,0,.164-.038.422.422,0,0,0,.164-.089L16.6,15.567a1.55,1.55,0,0,1,1.062-.4,1.322,1.322,0,0,1,.683.152h.025L23.251,18.2A1.273,1.273,0,0,1,23.883,19.033Z" transform="translate(0 -0.188)"/></g></g></svg>