<svg xmlns="http://www.w3.org/2000/svg" width="268.565" height="74.502" viewBox="0 0 268.565 74.502">
  <g id="plus_line2" transform="translate(-6646.218 -1581.5)">
    <path id="Path_1446" data-name="Path 1446" d="M-2588-590s67-46,134-46,134,46,134,46" transform="translate(9234.5 2218)" fill="none" stroke="#303030" stroke-width="1" stroke-dasharray="7" opacity="0.4"/>
    <g id="Group_85" data-name="Group 85" transform="translate(6761 1616)">
      <path id="Path_1450" data-name="Path 1450" d="M.006,20a4.845,4.845,0,0,0,4.84,4.84H15.167v10.32a4.84,4.84,0,1,0,9.681,0V24.841H35.166a4.84,4.84,0,1,0,0-9.681H24.848V4.84a4.84,4.84,0,1,0-9.68,0v10.32H4.846A4.845,4.845,0,0,0,.006,20Zm15.968-3.227a.807.807,0,0,0,.807-.807V4.84a3.227,3.227,0,1,1,6.454,0V15.967a.807.807,0,0,0,.807.807H35.166a3.227,3.227,0,1,1,0,6.454H24.041a.807.807,0,0,0-.807.807V35.161a3.227,3.227,0,1,1-6.454,0V24.034a.806.806,0,0,0-.807-.807H4.846a3.227,3.227,0,0,1,0-6.454H15.974Z" transform="translate(-0.006)" fill="#303030"/>
    </g>
  </g>
</svg>
