<svg xmlns="http://www.w3.org/2000/svg" width="139.5" height="90.675" viewBox="0 0 139.5 90.675">
  <g id="car" transform="translate(-7327 -1591)">
    <path id="ambulance-facing-right" d="M137.205,55.144,122.232,28.572a9.985,9.985,0,0,0-8-4.665H10.385a6.226,6.226,0,0,0-6.231,6.206V51.66H2.077a2.069,2.069,0,1,0,0,4.137H4.154v2.24H2.077a2.069,2.069,0,1,0,0,4.137H4.154V86.569a6.226,6.226,0,0,0,6.231,6.206H24.612a12.025,12.025,0,0,0,23.543,0H95.5a12.025,12.025,0,0,0,23.543,0h14.227a6.226,6.226,0,0,0,6.231-6.206V63.9A20.663,20.663,0,0,0,137.205,55.144Zm-6.9-3.788h-38.4V36.145h29.83ZM36.384,98.2a7.829,7.829,0,1,1,7.861-7.828A7.852,7.852,0,0,1,36.384,98.2Zm70.887,0a7.829,7.829,0,1,1,7.861-7.828A7.852,7.852,0,0,1,107.272,98.2Zm26-9.568H119.146a12.005,12.005,0,0,0-23.746,0H48.257a12.005,12.005,0,0,0-23.746,0H10.385a2.075,2.075,0,0,1-2.077-2.069V81.513H23.366a1.034,1.034,0,1,0,0-2.069H8.308V30.113a2.075,2.075,0,0,1,2.077-2.069H114.234a5.811,5.811,0,0,1,4.374,2.551l.8,1.413H89.829a2.072,2.072,0,0,0-2.077,2.069V53.425a2.072,2.072,0,0,0,2.077,2.069h42.809l.945,1.676a16.743,16.743,0,0,1,1.77,6.731V79.444H120.294a1.034,1.034,0,1,0,0,2.069h15.058v5.056A2.077,2.077,0,0,1,133.273,88.637ZM92.166,80.479a1.037,1.037,0,0,1-1.038,1.034H52.963a1.034,1.034,0,1,1,0-2.069H91.127A1.037,1.037,0,0,1,92.166,80.479Zm-.606-57.434h13.675a5.689,5.689,0,1,0,0-11.378H91.559a5.689,5.689,0,1,0,0,11.378Zm0-7.24h13.675a1.552,1.552,0,1,1,0,3.1H91.559a1.552,1.552,0,1,1,0-3.1Zm8.482,33.378V38.322a1.039,1.039,0,0,1,2.077,0v10.86a1.039,1.039,0,0,1-2.077,0Z" transform="translate(7327 1579.333)" fill="#0180ff"/>
    <path id="ambulance-facing-right-2" data-name="ambulance-facing-right" d="M54.315,63.365v-2.9h2.912a4.145,4.145,0,0,0,4.154-4.137V48.681a4.145,4.145,0,0,0-4.154-4.137H54.315v-2.9a4.145,4.145,0,0,0-4.154-4.137H42.482a4.145,4.145,0,0,0-4.154,4.137v2.9H35.417a4.145,4.145,0,0,0-4.154,4.137v7.648a4.145,4.145,0,0,0,4.154,4.137h2.912v2.9A4.145,4.145,0,0,0,42.482,67.5h7.679A4.149,4.149,0,0,0,54.315,63.365Zm-4.154,0H42.482V56.327H35.417V48.681h7.066V41.644h7.679v7.038h7.066v7.648H50.161Z" transform="translate(7327 1579.333)" fill="#1bdfbe"/>
  </g>
</svg>
