<svg id="sedan" xmlns="http://www.w3.org/2000/svg" width="85" height="38.903" viewBox="0 0 85 38.903">
  <g id="Group_267" data-name="Group 267" transform="translate(11.333 24.737)">
    <g id="Group_266" data-name="Group 266">
      <path id="Path_3023" data-name="Path 3023" d="M365.483,287.834a7.083,7.083,0,1,1-7.083,7.083A7.091,7.091,0,0,1,365.483,287.834Zm0,11.333a4.25,4.25,0,1,0-4.25-4.25A4.255,4.255,0,0,0,365.483,299.167Z" transform="translate(-358.4 -287.834)"/>
    </g>
  </g>
  <g id="Group_269" data-name="Group 269" transform="translate(59.5 24.737)">
    <g id="Group_268" data-name="Group 268">
      <path id="Path_3024" data-name="Path 3024" d="M75.349,287.834a7.083,7.083,0,1,1-7.083,7.083A7.091,7.091,0,0,1,75.349,287.834Zm0,11.333a4.25,4.25,0,1,0-4.25-4.25A4.255,4.255,0,0,0,75.349,299.167Z" transform="translate(-68.266 -287.834)"/>
    </g>
  </g>
  <g id="Group_271" data-name="Group 271" transform="translate(0 0)">
    <g id="Group_270" data-name="Group 270">
      <path id="Path_3025" data-name="Path 3025" d="M1.416,163.57v-8.5a1.415,1.415,0,0,1,.969-1.344l7.994-2.665c3.01-5.1,7.149-9.951,16.293-11.553l.051-.008c16.887-2.335,29.566,1.475,37.706,11.326,9.411.136,19.154,3.1,19.154,8.494v4.25A1.417,1.417,0,0,1,85,164.986v5.667a1.417,1.417,0,0,1-1.417,1.417H77.917a1.417,1.417,0,0,1-1.417-1.417,9.917,9.917,0,0,0-19.833,0,1.417,1.417,0,0,1-1.417,1.417H29.75a1.417,1.417,0,0,1-1.417-1.417,9.917,9.917,0,0,0-19.833,0,1.417,1.417,0,0,1-1.417,1.417H1.417A1.417,1.417,0,0,1,0,170.653v-5.667A1.416,1.416,0,0,1,1.416,163.57Zm18.348-18.621a19.044,19.044,0,0,0-5.885,5.871h5.94Zm17.07-3.282a64.431,64.431,0,0,0-9.7.637,23.537,23.537,0,0,0-4.553,1.257l.069,7.26H36.833Zm2.833.121v9.034H60.6C55.35,145.4,48.426,142.41,39.666,141.787ZM2.833,169.236H5.744a12.751,12.751,0,0,1,25.344,0H53.911a12.751,12.751,0,0,1,25.344,0h2.911V166.4a1.417,1.417,0,0,1-1.417-1.417v-4.25H79.333a1.417,1.417,0,1,1,0-2.833h.734c-1.917-2.081-7.78-4.25-16.317-4.25H11.564l-7.314,2.438V157.9H5.666a1.417,1.417,0,0,1,0,2.833H4.249v4.25A1.417,1.417,0,0,1,2.833,166.4Z" transform="translate(0 -138.833)"/>
    </g>
  </g>
</svg>
