<svg id="shuttle" xmlns="http://www.w3.org/2000/svg" width="89.985" height="46.666" viewBox="0 0 89.985 46.666">
  <path id="Path_3035" data-name="Path 3035" d="M48.954,48.549V45.908H42.917a2.2,2.2,0,0,1-2.2-2.2V34.9a2.2,2.2,0,0,1,2.2-2.2H62.036V30.059H42.917A4.848,4.848,0,0,0,38.074,34.9v8.8a4.848,4.848,0,0,0,4.843,4.843Zm0,0" transform="translate(-31.383 -24.776)"/>
  <path id="Path_3036" data-name="Path 3036" d="M129.225,45.907H115.012v2.642h14.213a4.848,4.848,0,0,0,4.843-4.843V34.9a4.848,4.848,0,0,0-4.843-4.843h-1.132V32.7h1.132a2.2,2.2,0,0,1,2.2,2.2v8.8A2.2,2.2,0,0,1,129.225,45.907Zm0,0" transform="translate(-94.798 -24.775)"/>
  <path id="Path_3037" data-name="Path 3037" d="M380.218,40.762l-6.744-8.8a4.87,4.87,0,0,0-3.845-1.9h-4.084A4.848,4.848,0,0,0,360.7,34.9v8.8a4.849,4.849,0,0,0,4.843,4.843h10.828a4.843,4.843,0,0,0,3.845-7.787Zm-1.871,3.919a2.16,2.16,0,0,1-1.974,1.227H365.546a2.2,2.2,0,0,1-2.2-2.2V34.9a2.2,2.2,0,0,1,2.2-2.2h4.084a2.213,2.213,0,0,1,1.747.862l6.744,8.8a2.16,2.16,0,0,1,.227,2.313Zm0,0" transform="translate(-297.308 -24.776)"/>
  <path id="Path_3038" data-name="Path 3038" d="M195.9,50.1h-16.73V78.273H164.82v2.642H198.1V78.273h-2.2ZM193.26,78.273H181.814V52.74h4.4V70.085h2.642V52.74h4.4Zm0,0" transform="translate(-135.853 -41.293)"/>
  <path id="Path_3039" data-name="Path 3039" d="M286.559,178.848H289.2v2.642h-2.642Zm0,0" transform="translate(-236.195 -147.415)"/>
  <path id="Path_3040" data-name="Path 3040" d="M60.028,234.535l-2.27,1.35a8.365,8.365,0,0,0,2.062,2.336l1.622-2.085A5.722,5.722,0,0,1,60.028,234.535Zm0,0" transform="translate(-47.607 -193.315)"/>
  <path id="Path_3041" data-name="Path 3041" d="M59.466,170.332A8.374,8.374,0,0,0,51.1,178.7a8.492,8.492,0,0,0,.106,1.336l2.608-.419a5.835,5.835,0,0,1-.073-.917,5.715,5.715,0,1,1,4.11,5.493l-.744,2.535a8.365,8.365,0,1,0,2.356-16.392Zm0,0" transform="translate(-42.12 -140.396)"/>
  <path id="Path_3042" data-name="Path 3042" d="M379.653,234.535l-2.27,1.35a8.354,8.354,0,0,0,2.062,2.336l1.622-2.085A5.721,5.721,0,0,1,379.653,234.535Zm0,0" transform="translate(-311.057 -193.315)"/>
  <path id="Path_3043" data-name="Path 3043" d="M379.087,170.332a8.375,8.375,0,0,0-8.365,8.365,8.486,8.486,0,0,0,.106,1.336l2.608-.419a5.833,5.833,0,0,1-.073-.917,5.715,5.715,0,1,1,4.11,5.493l-.743,2.535a8.365,8.365,0,1,0,2.356-16.392Zm0,0" transform="translate(-305.567 -140.396)"/>
  <path id="Path_3044" data-name="Path 3044" d="M326.267,4.914,329.279,8.9l2.108-1.592-3.013-3.987A8.408,8.408,0,0,0,321.7,0H301.508V2.642H321.7a5.752,5.752,0,0,1,4.566,2.272Zm0,0" transform="translate(-248.517 0)"/>
  <path id="Path_3045" data-name="Path 3045" d="M2.642,4.843a2.2,2.2,0,0,1,2.2-2.2H50.349V0H4.843A4.848,4.848,0,0,0,0,4.843V26H2.642Zm0,0"/>
  <path id="Path_3046" data-name="Path 3046" d="M2.642,169.109v-6.136H0v6.136a4.848,4.848,0,0,0,4.843,4.843h.88V171.31h-.88A2.2,2.2,0,0,1,2.642,169.109Zm0,0" transform="translate(0 -134.33)"/>
  <path id="Path_3047" data-name="Path 3047" d="M474.522,58.65l-3.832-5.072-2.108,1.592,3.832,5.073a5.754,5.754,0,0,1,1.157,3.45v9h-3.962v2.642h3.962v3.61a2.2,2.2,0,0,1-2.2,2.2v2.642a4.848,4.848,0,0,0,4.843-4.843V63.693a8.416,8.416,0,0,0-1.691-5.043Zm0,0" transform="translate(-386.227 -44.162)"/>
  <path id="Path_3048" data-name="Path 3048" d="M82.223,66.221l-1.867-1.868,1.867-1.867,1.868,1.867Zm3.735-3.736-1.867-1.867L87.4,57.309l1.867,1.868Zm0,0" transform="translate(-66.233 -47.237)"/>
  <path id="Path_3049" data-name="Path 3049" d="M132.32,66.221l-1.867-1.868,1.867-1.867,1.868,1.867Zm3.736-3.736-1.868-1.867,3.308-3.308,1.867,1.868Zm0,0" transform="translate(-107.526 -47.237)"/>
</svg>
