<svg xmlns="http://www.w3.org/2000/svg" width="16" height="16" viewBox="0 0 16 16">
  <g id="time" transform="translate(-3.938 -3.938)">
    <path id="Path_3051" data-name="Path 3051" d="M11.94,19.938A8,8,0,0,1,6.386,6.178a.642.642,0,1,1,.892.924,6.716,6.716,0,1,0,5.3-1.848v2.5a.644.644,0,0,1-1.288,0V4.582a.644.644,0,0,1,.644-.644,8,8,0,0,1,0,16Z" transform="translate(0)"/>
    <path id="Path_3052" data-name="Path 3052" d="M11.808,11.317l3.483,2.5a1.054,1.054,0,1,1-1.225,1.715,1.018,1.018,0,0,1-.245-.245l-2.5-3.483a.351.351,0,0,1,.49-.49Z" transform="translate(-2.908 -2.909)"/>
  </g>
</svg>
