<svg xmlns="http://www.w3.org/2000/svg" width="83.975" height="68.252" viewBox="0 0 83.975 68.252">
  <g id="Group_273" data-name="Group 273" transform="translate(0 -47.929)">
    <path id="Path_3026" data-name="Path 3026" d="M249.017,54.912a1.24,1.24,0,0,0,1.24-1.24v-4.5a1.24,1.24,0,0,0-2.48,0v4.5A1.24,1.24,0,0,0,249.017,54.912Z" transform="translate(-207.136)"/>
    <path id="Path_3027" data-name="Path 3027" d="M184.489,70.972a1.24,1.24,0,0,0,1.753-1.754l-3.19-3.188a1.24,1.24,0,0,0-1.753,1.754Z" transform="translate(-151.259 -14.829)"/>
    <path id="Path_3028" data-name="Path 3028" d="M296.441,71.335a1.236,1.236,0,0,0,.877-.363l3.189-3.188a1.24,1.24,0,1,0-1.753-1.754l-3.189,3.188a1.24,1.24,0,0,0,.876,2.117Z" transform="translate(-246.782 -14.829)"/>
    <path id="Path_3029" data-name="Path 3029" d="M287.767,288.68H290.9a1.24,1.24,0,0,0,0-2.48h-3.134a1.24,1.24,0,0,0,0,2.48Z" transform="translate(-239.53 -199.189)"/>
    <path id="Path_3030" data-name="Path 3030" d="M80.874,152.8v-9.818c.041-3.783-2-6.34-5.461-6.841-3.437-.5-4.289-.738-5.5-2.179l-.013-.016-8.588-9.862-.037-.041c-2.562-2.692-3.622-3.806-6.571-3.806H46.77V117.6a5.125,5.125,0,0,0-5.117-5.121h-.386a5.127,5.127,0,0,0-5.122,5.121v2.641H20.986a1.24,1.24,0,1,0,0,2.48H40.642c0,.009,0,.017,0,.026v29.943H28.369a10.025,10.025,0,0,0-13.549,0H5.6V124.424a1.719,1.719,0,0,1,1.685-1.707H15.3a1.24,1.24,0,0,0,0-2.48H7.289a4.18,4.18,0,0,0-4.164,4.186v28.37a4.042,4.042,0,0,0,.919,7.978h7.531a10.043,10.043,0,0,0,20.042,0h9.358a1.24,1.24,0,1,0,0-2.48h-9.5a9.972,9.972,0,0,0-1.133-3.125H54.927a9.972,9.972,0,0,0-1.134,3.125H46.651a1.24,1.24,0,0,0,0,2.48h7a10.046,10.046,0,0,0,20.046,0h6.234a4.042,4.042,0,0,0,.942-7.973Zm-2.48-6.684H74.646a.481.481,0,0,1-.481-.48v-1.292a.484.484,0,0,1,.481-.475h3.749ZM38.625,117.6a2.645,2.645,0,0,1,2.642-2.641h.386a2.642,2.642,0,0,1,2.638,2.641v2.641H38.625V117.6Zm4.4,5.121H54.7c1.811,0,2.211.342,4.755,3.016l8.563,9.834c1.85,2.194,3.591,2.531,7.037,3.028a3.506,3.506,0,0,1,3.17,2.794H74.645a2.961,2.961,0,0,0-2.96,2.955v1.292a2.963,2.963,0,0,0,2.96,2.959h3.749v4.092H70.452a10.029,10.029,0,0,0-13.552,0H43.027V122.744c0-.009,0-.017,0-.026ZM2.48,156.729a1.565,1.565,0,0,1,1.564-1.563H4.05a1.2,1.2,0,0,0,.629,0h8.169a9.971,9.971,0,0,0-1.133,3.125H4.044A1.565,1.565,0,0,1,2.48,156.729ZM21.6,167.662a7.565,7.565,0,1,1,7.566-7.563,7.573,7.573,0,0,1-7.566,7.563Zm42.082,0a7.565,7.565,0,1,1,7.566-7.563,7.575,7.575,0,0,1-7.566,7.563Zm16.255-9.37H73.557a9.976,9.976,0,0,0-1.133-3.125h6.9a1.2,1.2,0,0,0,.626,0,1.562,1.562,0,0,1-.014,3.125Z" transform="translate(0 -53.96)"/>
    <path id="Path_3031" data-name="Path 3031" d="M364.086,373.926a4.737,4.737,0,1,0,4.736,4.74A4.743,4.743,0,0,0,364.086,373.926Zm0,6.995a2.257,2.257,0,1,1,2.257-2.255A2.258,2.258,0,0,1,364.086,380.921Z" transform="translate(-300.409 -272.526)"/>
    <path id="Path_3032" data-name="Path 3032" d="M107.521,373.926a4.737,4.737,0,1,0,4.736,4.74A4.743,4.743,0,0,0,107.521,373.926Zm0,6.995a2.257,2.257,0,1,1,2.257-2.255A2.258,2.258,0,0,1,107.521,380.921Z" transform="translate(-85.926 -272.526)"/>
    <path id="Path_3033" data-name="Path 3033" d="M290.887,213h10.1l.063,0a1.62,1.62,0,0,0,1.587-1.563v-.5a2.458,2.458,0,0,0-.865-1.846c-.187-.2-.42-.454-.717-.824h0l-4.223-5.255a3.959,3.959,0,0,0-3.441-1.694h-4.166a1.682,1.682,0,0,0-1.728,1.514c0,.025,0,.05,0,.075l.013,7.056a3.221,3.221,0,0,0,3.377,3.04Zm2.506-9.3a1.649,1.649,0,0,1,1.58.8l4.224,5.255c.3.375.547.648.738.855h-9.048c-.7,0-.991-.426-.991-.656l-.012-6.256Z" transform="translate(-240.341 -128.227)"/>
    <path id="Path_3034" data-name="Path 3034" d="M87.79,220.657v4.453a2.051,2.051,0,0,0,2.049,2.048h2.187v2.185a2.051,2.051,0,0,0,2.049,2.049h4.454a2.053,2.053,0,0,0,2.054-2.049v-2.185h2.182a2.053,2.053,0,0,0,2.054-2.048v-4.453a2.056,2.056,0,0,0-2.054-2.053h-2.182v-2.181a2.056,2.056,0,0,0-2.054-2.053H94.074a2.053,2.053,0,0,0-2.049,2.053V218.6H89.839A2.053,2.053,0,0,0,87.79,220.657Zm2.48.427h3a1.24,1.24,0,0,0,1.24-1.24V216.85h3.6v2.994a1.24,1.24,0,0,0,1.24,1.24h3v3.595h-3a1.24,1.24,0,0,0-1.24,1.24v2.994h-3.6v-2.994a1.24,1.24,0,0,0-1.24-1.24h-3Z" transform="translate(-73.39 -139.141)"/>
  </g>
</svg>
